<svg width="584" height="345" viewBox="0 0 584 345" fill="none" xmlns="http://www.w3.org/2000/svg">
<g clip-path="url(#clip0_6482_31843)">
<rect x="0.5" width="583" height="345" rx="24" fill="#13488E"/>
<path d="M453.631 429.417C453.631 333.115 531.809 255.034 628.257 255.034L628.257 208C505.815 208 406.5 307.169 406.5 429.466L453.631 429.466L453.631 429.417Z" fill="#0C51AD"/>
<path d="M525.444 429.416C525.444 372.713 571.457 326.749 628.257 326.749L628.257 255.032C531.809 255.032 453.631 333.114 453.631 429.416L525.444 429.416Z" fill="#0B3D7F"/>
<path d="M49.5895 437.937C49.5895 129.712 299.808 -120.196 608.5 -120.196L608.5 -270.732C216.609 -270.732 -101.257 46.6688 -101.257 438.093L49.5895 438.093L49.5895 437.937Z" fill="#0C51AD"/>
<path d="M279.436 437.933C279.436 256.45 426.706 109.336 608.5 109.336L608.5 -120.2C299.808 -120.2 49.5895 129.708 49.5895 437.933L279.436 437.933Z" fill="#0B3D7F"/>
<path d="M108.297 612.254L181.373 615.945L213.074 468.604L233.705 376.679L219.119 617.815L292.987 614.567C292.987 614.567 309.135 433.177 309.333 346.421L166.373 300.979L108.297 612.254Z" fill="#101823"/>
<path d="M400.872 188.158L328.108 186.972C315.713 161.931 306.295 156.928 290.514 150.577C274.733 144.225 247.783 133.867 247.783 133.867C247.783 133.867 217.96 139.851 199.072 144.868C180.185 149.885 165.756 166.281 156.34 194.492C146.925 222.703 144.825 246.334 145.511 261.709C146.433 282.407 158.495 289.424 163.986 292.37L148.695 357.357L166.193 357.593L173.766 319.226L180.132 357.782L317.927 359.645L307.379 227.7C307.379 227.7 328.111 250.916 347.293 262.642C366.475 274.368 387.915 272.179 395.05 244.5C402.18 216.82 400.803 201.95 400.872 188.158Z" fill="#04DC86"/>
<path d="M224.147 140.286C226.269 150.972 235.674 159.803 246.473 161.246C257.271 162.69 268.667 156.639 273.521 146.886" stroke="#101823" stroke-width="1.28029" stroke-miterlimit="10" stroke-linecap="round" stroke-linejoin="round"/>
<path d="M163.984 292.371C174.943 299.749 245.882 297.387 245.882 297.387" stroke="#101823" stroke-width="1.28029" stroke-miterlimit="10" stroke-linecap="round" stroke-linejoin="round"/>
<path d="M171.343 240.016C177.658 239.101 184.237 240.091 190.003 242.825C186.736 238.355 181.911 235.049 176.563 233.616" stroke="#101823" stroke-width="1.28029" stroke-miterlimit="10" stroke-linecap="round" stroke-linejoin="round"/>
<path d="M180.423 155.062C184.56 153.606 189.28 155.777 192.082 159.151C194.884 162.524 196.176 166.868 197.341 171.096C200.143 181.265 202.601 191.529 204.712 201.865" stroke="#101823" stroke-width="1.28029" stroke-miterlimit="10" stroke-linecap="round" stroke-linejoin="round"/>
<path d="M298.633 156.03C297.679 170.486 296.724 184.942 295.77 199.399" stroke="#101823" stroke-width="1.28029" stroke-miterlimit="10" stroke-linecap="round" stroke-linejoin="round"/>
<path d="M152.677 338.855H169.442" stroke="#101823" stroke-width="1.28029" stroke-miterlimit="10" stroke-linecap="round" stroke-linejoin="round"/>
<path d="M177.004 338.855H313.629" stroke="#101823" stroke-width="1.28029" stroke-miterlimit="10" stroke-linecap="round" stroke-linejoin="round"/>
<path d="M231.159 297.971L229.192 256.68" stroke="#101823" stroke-width="1.28029" stroke-miterlimit="10" stroke-linecap="round" stroke-linejoin="round"/>
<path d="M399.438 204.121L373.14 205.536" stroke="#101823" stroke-width="1.28029" stroke-miterlimit="10" stroke-linecap="round" stroke-linejoin="round"/>
<path d="M395.044 189.328V204.359" stroke="#101823" stroke-width="1.28029" stroke-miterlimit="10" stroke-linecap="round" stroke-linejoin="round"/>
<path d="M386.739 189.328L386.171 204.837" stroke="#101823" stroke-width="1.28029" stroke-miterlimit="10" stroke-linecap="round" stroke-linejoin="round"/>
<path d="M231.16 287.646L243.609 287.941" stroke="#101823" stroke-width="1.28029" stroke-miterlimit="10" stroke-linecap="round" stroke-linejoin="round"/>
<path d="M229.967 274.532H243" stroke="#101823" stroke-width="1.28029" stroke-miterlimit="10" stroke-linecap="round" stroke-linejoin="round"/>
<path d="M229.714 267.655H242.999" stroke="#101823" stroke-width="1.28029" stroke-miterlimit="10" stroke-linecap="round" stroke-linejoin="round"/>
<path d="M273.568 105.508C274.761 106.391 275.951 107.273 277.142 108.155C277.657 107.651 278.179 107.143 278.69 106.641C276.305 97.5972 268.809 90.0883 259.77 87.6862C250.957 85.3448 240.843 88.035 234.8 94.8638C228.757 101.693 227.411 112.468 232.098 120.289L268.484 116.622C270.691 114.457 272.925 112.276 275.154 110.099C274.626 108.568 274.097 107.038 273.568 105.508Z" fill="#FF692D"/>
<path d="M266.562 145.58C263.906 144.203 261.196 143.085 258.541 141.708C258.751 140.48 259.282 139.043 259.492 137.815C262.998 137.729 266.444 136.149 268.799 133.55C271.155 130.952 272.487 127.066 272.261 123.564C272.08 120.759 271.72 117.966 271.597 115.158C271.522 113.447 270.774 111.795 269.528 110.622C262.345 110.896 254.98 111.174 247.798 111.448C246.673 113.418 245.434 115.535 244.308 117.507C243.365 116.433 242.443 115.191 241.499 114.117C238.306 113.138 234.571 114.287 232.481 116.891C230.391 119.494 230.075 123.39 231.721 126.296C233.366 129.202 236.869 130.936 240.177 130.481C239.743 133.04 238.807 135.319 238.373 137.878C235.677 138.788 232.969 139.763 230.272 140.674C231.682 148.775 237.992 155.807 246.135 156.954C254.278 158.102 262.969 152.977 266.562 145.58Z" fill="#FFC9B1"/>
<path d="M252.921 124.865C253.628 124.865 254.201 124.292 254.201 123.585C254.201 122.878 253.628 122.305 252.921 122.305C252.214 122.305 251.64 122.878 251.64 123.585C251.64 124.292 252.214 124.865 252.921 124.865Z" fill="#101823"/>
<path d="M268.348 123.953C269.055 123.953 269.628 123.38 269.628 122.673C269.628 121.966 269.055 121.393 268.348 121.393C267.641 121.393 267.068 121.966 267.068 122.673C267.068 123.38 267.641 123.953 268.348 123.953Z" fill="#101823"/>
<path d="M237.014 119.046C238.323 119.771 239.632 120.497 240.941 121.224" stroke="#101823" stroke-width="1.28029" stroke-miterlimit="10" stroke-linecap="round" stroke-linejoin="round"/>
<path d="M238.787 130.77C239.541 130.737 240.294 130.704 241.05 130.672" stroke="#101823" stroke-width="1.28029" stroke-miterlimit="10" stroke-linecap="round" stroke-linejoin="round"/>
<path d="M249.877 115.983C250.45 114.606 251.883 113.633 253.374 113.607C254.866 113.583 256.33 114.508 256.948 115.867" stroke="#101823" stroke-width="1.28029" stroke-miterlimit="10" stroke-linecap="round" stroke-linejoin="round"/>
<path d="M265.244 115.472C267.409 115.152 269.574 114.83 271.739 114.51" stroke="#101823" stroke-width="1.28029" stroke-miterlimit="10" stroke-linecap="round" stroke-linejoin="round"/>
<path d="M261.208 122.096C261.529 123.736 261.852 125.376 262.176 127.017C261.388 126.929 260.523 127.05 259.735 126.961" stroke="#101823" stroke-width="1.28029" stroke-miterlimit="10" stroke-linecap="round" stroke-linejoin="round"/>
<path d="M255.831 127.903C255.678 128.636 255.958 129.443 256.534 129.921C257.11 130.4 257.957 130.526 258.648 130.238" stroke="#101823" stroke-width="1.28029" stroke-miterlimit="10" stroke-linecap="round" stroke-linejoin="round"/>
<path d="M249.182 135.112C252.396 137.828 256.875 138.976 261 138.142" stroke="#101823" stroke-width="1.28029" stroke-miterlimit="10" stroke-linecap="round" stroke-linejoin="round"/>
<path d="M290.914 285.847C279.412 293.553 245.883 294.717 245.883 294.717L243.001 256.681L284.505 264.66L290.914 285.847Z" fill="#FFC9B1"/>
<path d="M326.138 160.607C313.466 169.7 304.763 183.308 301.826 198.627L340.405 192.451L361.448 135.271L326.138 160.607Z" fill="white"/>
<path d="M398.742 188.626C398.742 188.626 398.638 186.136 398.388 182.008C397.801 172.283 395.365 162.733 391.732 153.693C384.878 152.241 377.874 150.532 371.363 147.949C366.909 150.609 362.514 153.49 358.06 156.149C354.373 156.058 350.684 155.967 346.997 155.874C346.607 156.65 347.154 157.679 347.767 158.297C348.38 158.915 349.214 159.248 350.023 159.565C353.32 160.856 356.617 162.149 359.912 163.442C355.607 163.412 351.302 163.383 346.997 163.353C346.792 164.281 347.141 165.6 347.874 166.206C348.607 166.813 349.53 167.13 350.431 167.434C354.335 168.751 358.238 170.069 362.141 171.388C361.936 180.141 361.84 179.518 361.636 188.27L398.742 188.626Z" fill="#FFC9B1"/>
<path d="M357.029 156.008C365.195 155.997 373.36 155.986 381.525 155.975" stroke="#101823" stroke-width="1.28029" stroke-miterlimit="10" stroke-linecap="round" stroke-linejoin="round"/>
<path d="M358.809 163.297C362.942 163.678 367.075 164.059 371.207 164.44" stroke="#101823" stroke-width="1.28029" stroke-miterlimit="10" stroke-linecap="round" stroke-linejoin="round"/>
<path d="M370.843 154.33C371.326 154.733 371.81 155.137 372.293 155.54" stroke="#101823" stroke-width="1.28029" stroke-miterlimit="10" stroke-linecap="round" stroke-linejoin="round"/>
<path d="M206.149 183.253L210.753 169.323L280.911 183.731C287.649 185.082 293.823 188.428 298.634 193.335L301.826 196.592C306.002 188.737 313.067 182.814 321.53 180.077L378.055 161.542L388.808 173.542L328.01 217.121L206.149 183.253Z" fill="white"/>
<path d="M217.164 174.993L275.653 185.805" stroke="#101823" stroke-width="1.28029" stroke-miterlimit="10" stroke-linecap="round" stroke-linejoin="round"/>
<path d="M216.581 180.327L273.918 190.558" stroke="#101823" stroke-width="1.28029" stroke-miterlimit="10" stroke-linecap="round" stroke-linejoin="round"/>
<path d="M323.091 185.802L375.031 169.321" stroke="#101823" stroke-width="1.28029" stroke-miterlimit="10" stroke-linecap="round" stroke-linejoin="round"/>
<path d="M325.452 189.328L379.22 173.096" stroke="#101823" stroke-width="1.28029" stroke-miterlimit="10" stroke-linecap="round" stroke-linejoin="round"/>
<path d="M348.488 171.234C348.488 171.234 327.197 177.471 319.39 180.324C311.583 183.18 305.057 188.749 301.828 196.589" stroke="#101823" stroke-width="1.28029" stroke-miterlimit="10" stroke-linecap="round" stroke-linejoin="round"/>
<path d="M295.38 201.806C299.017 198.424 305.176 198.218 309.032 201.345" stroke="#101823" stroke-width="1.28029" stroke-miterlimit="10" stroke-linecap="round" stroke-linejoin="round"/>
<path d="M363.947 240.063L286.577 267.941C281.424 269.798 275.852 270.171 270.497 269.015L181.286 249.774L206.146 183.252L294.013 202.202C299.283 203.338 304.764 202.995 309.853 201.213L388.807 173.539L363.947 240.063Z" fill="#546CFF"/>
<path d="M292.052 205.422L267.192 271.944" stroke="#101823" stroke-width="1.28029" stroke-miterlimit="10" stroke-linecap="round" stroke-linejoin="round"/>
<path d="M312.836 204.212L287.976 270.734" stroke="#101823" stroke-width="1.28029" stroke-miterlimit="10" stroke-linecap="round" stroke-linejoin="round"/>
<path d="M285.576 224.872C291.899 227.727 299.549 227.45 305.648 224.144" stroke="#101823" stroke-width="1.28029" stroke-miterlimit="10" stroke-linecap="round" stroke-linejoin="round"/>
<path d="M282.696 231.805C288.715 234.733 296.02 234.887 302.157 232.213" stroke="#101823" stroke-width="1.28029" stroke-miterlimit="10" stroke-linecap="round" stroke-linejoin="round"/>
<path d="M351.03 212.984L327.018 221.607L331.637 211.632L355.65 203.009L351.03 212.984Z" stroke="#101823" stroke-width="1.28029" stroke-miterlimit="10" stroke-linecap="round" stroke-linejoin="round"/>
<path d="M276.834 289.888C270.499 291.221 263.462 289.627 258.648 285.77C253.834 281.913 251.587 276.125 252.511 270.458C259.07 264.384 265.63 258.309 272.192 252.236C272.928 251.554 273.687 250.858 274.655 250.461C275.623 250.064 276.862 250.031 277.686 250.626C274.525 258.021 271.124 265.439 267.964 272.834C268.626 273.983 269.258 275.177 269.921 276.328C276.538 268.875 283.039 261.497 289.657 254.044C290.439 253.163 291.14 251.823 292.289 251.343C293.438 250.863 294.829 250.85 295.988 251.311C293.888 255.68 292.15 260.294 291.02 264.93C292.797 262.224 294.755 259.473 296.532 256.767C297.356 255.51 298.631 254.331 300.265 254.525C299.523 257.576 299.017 260.625 298.275 263.677C299.022 262.771 300.061 261.616 300.806 260.71C301.392 259.999 302.538 259.455 303.413 259.876C302.173 264.244 301.032 268.635 299.792 273.002C298.825 276.41 296.668 279.455 295.085 282.68C292.569 287.809 283.017 288.588 276.834 289.888Z" fill="#FFC9B1"/>
<path d="M291.368 263.584L285.434 277.754" stroke="#101823" stroke-width="1.28029" stroke-miterlimit="10" stroke-linecap="round" stroke-linejoin="round"/>
<path d="M298.53 262.597L295.507 277.326" stroke="#101823" stroke-width="1.28029" stroke-miterlimit="10" stroke-linecap="round" stroke-linejoin="round"/>
<path d="M107.562 179.535C107.884 178.664 109.116 178.664 109.438 179.535L113.202 189.707C113.303 189.981 113.519 190.197 113.793 190.298L123.965 194.062C124.836 194.384 124.836 195.616 123.965 195.938L113.793 199.702C113.519 199.803 113.303 200.019 113.202 200.293L109.438 210.465C109.116 211.336 107.884 211.336 107.562 210.465L103.798 200.293C103.697 200.019 103.481 199.803 103.207 199.702L93.0345 195.938C92.1639 195.616 92.1639 194.384 93.0345 194.062L103.207 190.298C103.481 190.197 103.697 189.981 103.798 189.707L107.562 179.535Z" fill="white"/>
<path d="M412.562 284.535C412.884 283.664 414.116 283.664 414.438 284.535L415.501 287.408C415.602 287.682 415.818 287.898 416.092 287.999L418.965 289.062C419.836 289.384 419.836 290.616 418.965 290.938L416.092 292.001C415.818 292.102 415.602 292.318 415.501 292.592L414.438 295.465C414.116 296.336 412.884 296.336 412.562 295.465L411.499 292.592C411.398 292.318 411.182 292.102 410.908 292.001L408.035 290.938C407.164 290.616 407.164 289.384 408.035 289.062L410.908 287.999C411.182 287.898 411.398 287.682 411.499 287.408L412.562 284.535Z" fill="white"/>
<g clip-path="url(#clip1_6482_31843)">
<path d="M359.484 67.3493L348.882 70.8666C348.33 71.0499 347.723 70.841 347.4 70.3563C347.078 69.8717 347.119 69.2313 347.502 68.7923C351.216 64.5303 352.559 60.5503 351.608 56.6249C351.278 55.2625 352.108 53.8116 353.454 53.3844C354.829 52.9525 356.293 53.0757 357.576 53.7311C358.859 54.3873 359.817 55.5025 360.272 56.8714C360.272 56.8715 360.272 56.8717 360.272 56.8719L360.409 57.2837C361.518 60.6279 361.235 63.0888 360.324 66.4601C360.211 66.8789 359.896 67.2128 359.484 67.3493Z" fill="#FFC9B1"/>
<path d="M372.938 64.4282C372.236 62.3104 369.941 61.159 367.824 61.8616L348.069 68.4153C347.849 68.4881 347.653 68.6185 347.502 68.7929C346.387 70.0728 345.211 71.2123 344.266 72.128C343.936 72.4473 343.625 72.749 343.344 73.0294C342.997 73.3748 342.876 73.8862 343.03 74.3505L348.235 90.0405C348.389 90.5049 348.792 90.8422 349.276 90.9121C355.051 91.7451 359.267 90.6787 364.068 89.0859C364.812 88.8392 365.57 88.5798 366.349 88.3131C367.211 88.018 368.102 87.713 369.04 87.402L372.915 86.1164C375.033 85.4138 376.184 83.1193 375.481 81.0014C375.245 80.2894 374.829 79.6866 374.3 79.2267C375.179 78.1851 375.514 76.7236 375.054 75.3376C374.818 74.6256 374.401 74.0228 373.872 73.563C374.752 72.5213 375.086 71.0598 374.626 69.6739C374.296 68.6778 373.613 67.8955 372.762 67.4194C373.204 66.4777 373.267 65.4198 372.938 64.4282Z" fill="#FFC9B1"/>
<path d="M366.843 54.5846L364.227 55.4521C363.551 55.6767 362.82 55.3099 362.595 54.633C362.371 53.9561 362.737 53.2251 363.414 53.0006L366.029 52.133C366.706 51.9085 367.437 52.2752 367.662 52.9522C367.886 53.6291 367.52 54.36 366.843 54.5846Z" fill="#29CCB1"/>
<path d="M348.538 60.6569L345.923 61.5244C345.246 61.749 344.515 61.3822 344.29 60.7053C344.066 60.0284 344.432 59.2974 345.109 59.0728L347.724 58.2053C348.401 57.9807 349.132 58.3475 349.357 59.0244C349.581 59.7013 349.215 60.4322 348.538 60.6569Z" fill="#29CCB1"/>
<path d="M350.207 52.5612C349.784 52.7018 349.299 52.6187 348.941 52.3007L346.882 50.4698C346.35 49.9959 346.302 49.1795 346.776 48.6466C347.25 48.1136 348.066 48.0658 348.599 48.5397L350.658 50.3706C351.191 50.8446 351.238 51.661 350.765 52.1939C350.609 52.3694 350.415 52.4923 350.207 52.5612Z" fill="#29CCB1"/>
<path d="M358.05 49.9597C357.842 50.0287 357.614 50.0457 357.384 49.9982C356.685 49.8542 356.236 49.1712 356.38 48.4727L356.936 45.7742C357.08 45.0757 357.763 44.6259 358.461 44.7701C359.16 44.9141 359.609 45.5972 359.465 46.2957L358.909 48.9941C358.813 49.4626 358.474 49.8192 358.05 49.9597Z" fill="#29CCB1"/>
<path d="M344.577 88.3685L346.719 94.8243L344.268 95.6376L342.126 89.1818C341.901 88.5052 342.268 87.7739 342.945 87.5494C343.622 87.3249 344.353 87.6919 344.577 88.3685Z" fill="#73C3FF"/>
<path d="M366.843 54.5846L364.227 55.4521C363.551 55.6767 362.82 55.3099 362.595 54.633C362.371 53.9561 362.737 53.2251 363.414 53.0006L366.029 52.133C366.706 51.9085 367.437 52.2752 367.662 52.9522C367.886 53.6291 367.52 54.36 366.843 54.5846Z" fill="#23FBA4"/>
<path d="M348.538 60.6569L345.923 61.5244C345.246 61.749 344.515 61.3822 344.29 60.7053C344.066 60.0284 344.432 59.2974 345.109 59.0728L347.724 58.2053C348.401 57.9807 349.132 58.3475 349.357 59.0244C349.581 59.7013 349.215 60.4322 348.538 60.6569Z" fill="#23FBA4"/>
<path d="M350.207 52.5612C349.784 52.7018 349.299 52.6187 348.941 52.3007L346.882 50.4698C346.35 49.9959 346.302 49.1795 346.776 48.6466C347.25 48.1136 348.066 48.0658 348.599 48.5397L350.658 50.3706C351.191 50.8446 351.238 51.661 350.765 52.1939C350.609 52.3694 350.415 52.4923 350.207 52.5612Z" fill="#23FBA4"/>
<path d="M358.05 49.9597C357.842 50.0287 357.614 50.0457 357.384 49.9982C356.685 49.8542 356.236 49.1712 356.38 48.4727L356.936 45.7742C357.08 45.0757 357.763 44.6259 358.461 44.7701C359.16 44.9141 359.609 45.5972 359.465 46.2957L358.909 48.9941C358.813 49.4626 358.474 49.8192 358.05 49.9597Z" fill="#23FBA4"/>
<path d="M344.577 88.3675L346.719 94.8233L344.268 95.6366L342.126 89.1809C341.901 88.5043 342.268 87.7729 342.945 87.5484C343.622 87.324 344.353 87.691 344.577 88.3675Z" fill="#73C3FF"/>
<path d="M342.965 70.1086L332.505 73.5787C331.828 73.8032 331.461 74.5345 331.686 75.2111L338.626 96.131C338.851 96.8084 339.582 97.1746 340.263 96.9656L348.108 94.3631C349.606 93.849 350.622 92.5496 350.834 91.0804C350.922 90.4788 350.874 89.8479 350.67 89.2326L344.597 70.9277C344.373 70.251 343.641 69.8841 342.965 70.1086Z" fill="#546CFF"/>
<path d="M344.55 88.2865L346.719 94.824L344.268 95.6373L342.099 89.0998C341.874 88.4232 342.241 87.6918 342.918 87.4674C343.595 87.2429 344.326 87.6099 344.55 88.2865Z" fill="#73C3FF"/>
</g>
</g>
<defs>
<clipPath id="clip0_6482_31843">
<rect x="0.5" width="583" height="345" rx="24" fill="white"/>
</clipPath>
<clipPath id="clip1_6482_31843">
<rect width="44" height="44" fill="white" transform="translate(324.5 55.8545) rotate(-18.3534)"/>
</clipPath>
</defs>
</svg>
