<svg width="33" height="33" viewBox="0 0 33 33" fill="none" xmlns="http://www.w3.org/2000/svg">
<g clip-path="url(#clip0_11620_1986)">
<path d="M5.03206 27.332L18.0594 22.7118L29.4979 25.2841C30.9642 22.9351 31.8126 20.1605 31.8126 17.1874C31.8126 8.73056 24.957 1.875 16.5002 1.875C8.04337 1.875 1.18774 8.73056 1.18774 17.1874C1.18774 21.0791 2.64037 24.6309 5.03187 27.3324L5.03206 27.332Z" fill="#02C0FC"/>
<path d="M22.0893 13.5762L19.707 21.395L22.0893 31.4479C23.4261 30.9235 24.6708 30.2162 25.7935 29.3574L27.0549 23.3117V16.1944L22.0893 13.5762Z" fill="#FFDA4C"/>
<path d="M5.03198 1.875V27.332C6.08386 28.5204 7.31755 29.5442 8.68948 30.3598L22.0893 5.12125V1.875H5.03198Z" fill="#ADE9F7"/>
<path d="M12.3051 5.12109C11.1801 5.12109 10.2681 6.03309 10.2681 7.15816V25.3007L18.4318 32.3779C19.7063 32.2173 20.9322 31.901 22.0893 31.4471V5.12109H12.3051Z" fill="#E8F8FC"/>
<path d="M28.676 17.0491L27.0548 16.1943C26.4058 16.5779 25.7935 17.2096 25.7935 18.2283V29.3574C27.2595 28.2359 28.517 26.8557 29.4977 25.2847V18.4113C29.4977 17.84 29.1814 17.3156 28.676 17.0491Z" fill="#FEF156"/>
<path d="M11.4309 2.82562C7.5452 2.82562 6.37258 2.82562 4.9487 2.82562C4.30914 2.82562 3.78589 2.30237 3.78589 1.66281C3.78589 1.02331 4.30914 0.5 4.9487 0.5H11.4308L12.3479 1.66281L11.4309 2.82562Z" fill="#FC51A3"/>
<path d="M20.3131 2.82562C17.3619 2.82562 15.7831 2.82562 11.4309 2.82562C10.7913 2.82562 10.2681 2.30237 10.2681 1.66281C10.2681 1.02325 10.7913 0.5 11.4308 0.5H20.3129L21.2428 1.66281L20.3131 2.82562Z" fill="#FD77A6"/>
<path d="M23.3355 1.66281C23.3355 1.02331 22.8122 0.5 22.1726 0.5H20.313C19.6736 0.500125 19.1504 1.02331 19.1504 1.66281C19.1504 2.30237 19.6736 2.82562 20.3132 2.82562H22.1726C22.8122 2.82562 23.3355 2.30237 23.3355 1.66281Z" fill="#FEA2C8"/>
<path d="M9.0619 4.93359C8.36415 4.93359 7.79321 5.50453 7.79321 6.20228V6.79253C7.79321 7.49028 8.36409 8.06122 9.0619 8.06122C9.75965 8.06122 10.3306 7.49034 10.3306 6.79253V6.20228C10.3306 5.50453 9.75971 4.93359 9.0619 4.93359Z" fill="#1D8DF2"/>
<path d="M13.5607 4.93359C12.8629 4.93359 12.292 5.50453 12.292 6.20228V6.79253C12.292 7.49028 12.8629 8.06122 13.5607 8.06122C14.2584 8.06122 14.8294 7.49034 14.8294 6.79253V6.20228C14.8294 5.50453 14.2585 4.93359 13.5607 4.93359Z" fill="#27A6FF"/>
<path d="M18.0595 4.93359C17.3617 4.93359 16.7908 5.50453 16.7908 6.20228V6.79253C16.7908 7.49028 17.3616 8.06122 18.0595 8.06122C18.7572 8.06122 19.3281 7.49034 19.3281 6.79253V6.20228C19.3281 5.50453 18.7572 4.93359 18.0595 4.93359Z" fill="#27A6FF"/>
<path d="M9.0619 9.81738C8.36415 9.81738 7.79321 10.3883 7.79321 11.0861V11.6763C7.79321 12.3741 8.36409 12.945 9.0619 12.945C9.75965 12.945 10.3306 12.3741 10.3306 11.6763V11.0861C10.3306 10.3883 9.75971 9.81738 9.0619 9.81738Z" fill="#1D8DF2"/>
<path d="M13.5607 9.81738C12.8629 9.81738 12.292 10.3883 12.292 11.0861V11.6763C12.292 12.3741 12.8629 12.945 13.5607 12.945C14.2584 12.945 14.8294 12.3741 14.8294 11.6763V11.0861C14.8294 10.3883 14.2585 9.81738 13.5607 9.81738Z" fill="#27A6FF"/>
<path d="M18.0595 9.81738C17.3617 9.81738 16.7908 10.3883 16.7908 11.0861V11.6763C16.7908 12.3741 17.3616 12.945 18.0595 12.945C18.7572 12.945 19.3281 12.3741 19.3281 11.6763V11.0861C19.3281 10.3883 18.7572 9.81738 18.0595 9.81738Z" fill="#27A6FF"/>
<path d="M9.0619 14.7012C8.36415 14.7012 7.79321 15.272 7.79321 15.9699V16.5601C7.79321 17.2579 8.36409 17.8288 9.0619 17.8288C9.75965 17.8288 10.3306 17.2579 10.3306 16.5601V15.9699C10.3306 15.2721 9.75971 14.7012 9.0619 14.7012Z" fill="#1D8DF2"/>
<path d="M13.5607 14.7012C12.8629 14.7012 12.292 15.272 12.292 15.9699V16.5601C12.292 17.2579 12.8629 17.8288 13.5607 17.8288C14.2584 17.8288 14.8294 17.2579 14.8294 16.5601V15.9699C14.8294 15.2721 14.2585 14.7012 13.5607 14.7012Z" fill="#27A6FF"/>
<path d="M18.0595 14.7012C17.3617 14.7012 16.7908 15.272 16.7908 15.9699V16.5601C16.7908 17.2579 17.3616 17.8288 18.0595 17.8288C18.7572 17.8288 19.3281 17.2579 19.3281 16.5601V15.9699C19.3281 15.2721 18.7573 14.7012 18.0595 14.7012Z" fill="#27A6FF"/>
<path d="M9.0619 19.585C8.36415 19.585 7.79321 20.1558 7.79321 20.8536V21.4439C7.79321 22.1416 8.36409 22.7126 9.0619 22.7126C9.75965 22.7126 10.3306 22.1417 10.3306 21.4439V20.8536C10.3306 20.1559 9.75971 19.585 9.0619 19.585Z" fill="#1D8DF2"/>
<path d="M13.5607 19.585C12.8629 19.585 12.292 20.1558 12.292 20.8536V21.4439C12.292 22.1416 12.8629 22.7126 13.5607 22.7126C14.2584 22.7126 14.8294 22.1417 14.8294 21.4439V20.8536C14.8294 20.1559 14.2585 19.585 13.5607 19.585Z" fill="#27A6FF"/>
<path d="M18.0595 19.585C17.3617 19.585 16.7908 20.1558 16.7908 20.8536V21.4439C16.7908 22.1416 17.3616 22.7126 18.0595 22.7126C18.7572 22.7126 19.3281 22.1417 19.3281 21.4439V20.8536C19.3281 20.1559 18.7573 19.585 18.0595 19.585Z" fill="#27A6FF"/>
<path d="M25.7936 19.585C25.0958 19.585 24.5249 20.1558 24.5249 20.8536V21.4439C24.5249 22.1416 25.0958 22.7126 25.7936 22.7126C26.4913 22.7126 27.0623 22.1417 27.0623 21.4439V20.8536C27.0622 20.1559 26.4913 19.585 25.7936 19.585Z" fill="#FEA53D"/>
<path d="M25.7936 24.4678C25.0958 24.4678 24.5249 25.0386 24.5249 25.7365V26.3267C24.5249 27.0245 25.0958 27.5954 25.7936 27.5954C26.4913 27.5954 27.0623 27.0245 27.0623 26.3267V25.7365C27.0622 25.0386 26.4913 24.4678 25.7936 24.4678Z" fill="#FEA53D"/>
<path d="M13.5606 25.3008H9.85229L11.0151 31.4862C11.8322 31.7999 12.6831 32.0452 13.5606 32.2162L14.8293 28.5401L13.5606 25.3008Z" fill="#27A6FF"/>
<path d="M13.5608 25.3008V32.2162C14.3875 32.3772 15.2377 32.4723 16.1063 32.4942L17.2691 25.3008H13.5608Z" fill="#02C0FC"/>
<path d="M17.269 25.3008C16.6295 25.3008 16.1062 25.824 16.1062 26.4636V32.4942C16.2371 32.4975 16.3684 32.4996 16.5001 32.4996C17.1546 32.4996 17.7991 32.4577 18.4319 32.3779C18.4319 30.3653 18.4319 28.3204 18.4319 26.4635C18.4318 25.824 17.9085 25.3008 17.269 25.3008Z" fill="#3F57A0"/>
<path d="M9.85227 25.3008C9.2127 25.3008 8.68945 25.824 8.68945 26.4636V30.3597C9.42677 30.798 10.2046 31.1749 11.0151 31.4861C11.0151 29.7663 11.0151 28.0465 11.0151 26.4635C11.0151 25.824 10.4918 25.3008 9.85227 25.3008Z" fill="#3F57A0"/>
<path d="M18.5442 24.6523C16.8597 24.6523 11.5684 24.6523 8.57706 24.6523C7.93756 24.6523 7.41431 25.1757 7.41431 25.8152C7.41431 26.4547 7.93756 26.978 8.57712 26.978H18.5442C19.1838 26.978 19.7071 26.4547 19.7071 25.8152C19.7071 25.1757 19.1838 24.6523 18.5442 24.6523Z" fill="#5071B7"/>
</g>
<defs>
<clipPath id="clip0_11620_1986">
<rect width="32" height="32" fill="white" transform="translate(0.5 0.5)"/>
</clipPath>
</defs>
</svg>
