<svg width="32" height="33" viewBox="0 0 32 33" fill="none" xmlns="http://www.w3.org/2000/svg">
<g clip-path="url(#clip0_9339_50475)">
<path fill-rule="evenodd" clip-rule="evenodd" d="M16 0.5C24.8 0.5 32 7.7 32 16.5C32 25.3 24.8 32.5 16 32.5C7.2 32.5 0 25.3 0 16.5C0 7.7 7.2 0.5 16 0.5Z" fill="#4BAAF5"/>
<path fill-rule="evenodd" clip-rule="evenodd" d="M3.93125 16.5C3.93125 8.3625 10.0813 1.59375 17.9688 0.61875C17.3188 0.54375 16.6688 0.5 16 0.5C7.2 0.5 0 7.7 0 16.5C0 25.3 7.2 32.5 16 32.5C16.6688 32.5 17.3188 32.4563 17.9625 32.3813C10.0812 31.4062 3.93125 24.6375 3.93125 16.5Z" fill="#4499DD"/>
<path fill-rule="evenodd" clip-rule="evenodd" d="M12.6375 17.3809H19.3687V22.6746C19.3687 24.5246 17.8562 26.0371 16.0062 26.0371C14.1562 26.0371 12.6437 24.5246 12.6437 22.6746V17.3809H12.6375Z" fill="#FBBD80"/>
<path fill-rule="evenodd" clip-rule="evenodd" d="M22.2 9.89414C22.2 7.04414 19.8688 4.71289 17.0188 4.71289H14.9875C12.1375 4.71289 9.80627 7.04414 9.80627 9.89414H22.2Z" fill="#EA2F2F"/>
<path fill-rule="evenodd" clip-rule="evenodd" d="M9.3938 9.96289H22.6063V12.5566H9.3938V9.96289Z" fill="#323E4B"/>
<path fill-rule="evenodd" clip-rule="evenodd" d="M23.3312 14.8879H8.66873C8.03123 14.8879 7.50623 14.3629 7.50623 13.7191C7.50623 13.0816 8.03123 12.5566 8.66873 12.5566H23.325C23.9687 12.5566 24.4937 13.0816 24.4937 13.7191C24.4937 14.3629 23.9687 14.8879 23.3312 14.8879Z" fill="#FBBD80"/>
<path fill-rule="evenodd" clip-rule="evenodd" d="M19.3625 20.1125C18.3687 20.6812 17.2187 21.0063 16 21.0063C14.7812 21.0063 13.6312 20.6812 12.6375 20.1125V17.375H19.3687V20.1125H19.3625Z" fill="#E2AA73"/>
<path fill-rule="evenodd" clip-rule="evenodd" d="M11.8813 10.6689H20.125V11.6627C20.125 12.1564 20.5312 12.5564 21.0187 12.5564H22.1938V14.1689C22.1938 17.5752 19.4062 20.3564 16 20.3564C12.5938 20.3564 9.8125 17.5689 9.8125 14.1689V12.5564H10.9875C11.4813 12.5564 11.8813 12.1502 11.8813 11.6627V10.6689Z" fill="#FFD18D"/>
<path fill-rule="evenodd" clip-rule="evenodd" d="M11.5563 8.88105H13.425V5.64355C13.425 5.13105 13.0063 4.70605 12.4875 4.70605C11.975 4.70605 11.55 5.1248 11.55 5.64355V8.88105H11.5563Z" fill="#D32A2A"/>
<path fill-rule="evenodd" clip-rule="evenodd" d="M15.0625 8.88145H16.9375V4.7002C16.9375 4.1877 16.5187 3.7627 16 3.7627C15.4875 3.7627 15.0625 4.18145 15.0625 4.7002V8.88145Z" fill="#D32A2A"/>
<path fill-rule="evenodd" clip-rule="evenodd" d="M18.575 8.88105H20.45V5.64355C20.45 5.13105 20.0312 4.70605 19.5125 4.70605C19 4.70605 18.575 5.1248 18.575 5.64355V8.88105Z" fill="#D32A2A"/>
<path fill-rule="evenodd" clip-rule="evenodd" d="M10.9812 12.5559H9.8125V14.1684C9.8125 14.4121 9.825 14.6496 9.85625 14.8871C10.075 16.7559 11.1313 18.3746 12.6438 19.3621C13.6125 19.9934 14.7688 20.3621 16.0063 20.3621C17.2438 20.3621 18.4 19.9934 19.3687 19.3621V19.2684C18.75 19.4809 18.0813 19.5934 17.3875 19.5934C15.4938 19.5934 13.7875 18.7309 12.65 17.3809C12.05 16.6684 11.6063 15.8184 11.375 14.8871C11.175 14.0746 11.1938 13.3746 11.1938 12.5559L11.1687 12.5371C11.1062 12.5496 11.0437 12.5559 10.9812 12.5559Z" fill="#FBBD80"/>
<path fill-rule="evenodd" clip-rule="evenodd" d="M8.2125 8.52539H23.7875C24.1438 8.52539 24.4375 8.81914 24.4375 9.17539V10.0129C24.4375 10.3691 24.1438 10.6629 23.7875 10.6629H8.2125C7.85625 10.6629 7.5625 10.3691 7.5625 10.0129V9.17539C7.5625 8.81914 7.85625 8.52539 8.2125 8.52539Z" fill="#EA2F2F"/>
<path fill-rule="evenodd" clip-rule="evenodd" d="M8.25 8.52539H23.75C24.125 8.52539 24.4375 8.81914 24.4375 9.17539V9.59414H7.5625V9.17539C7.5625 8.81914 7.86875 8.52539 8.25 8.52539Z" fill="#D32A2A"/>
<path fill-rule="evenodd" clip-rule="evenodd" d="M19.8812 22.9313L25.6812 25.1875C26.7 25.5813 27.375 26.5063 27.4874 27.6125C24.5749 30.6188 20.4937 32.5 16 32.5C11.5062 32.5 7.4312 30.625 4.51245 27.6125C4.62495 26.5 5.29995 25.5813 6.3187 25.1875L12.1187 22.9313C12.9125 22.625 13.7 22.6938 14.4375 23.1438L16 24.1L17.5625 23.1438C18.3062 22.6938 19.0875 22.625 19.8812 22.9313Z" fill="#EEF1F3"/>
<path fill-rule="evenodd" clip-rule="evenodd" d="M23.0813 24.1748V30.8373C20.9438 31.8998 18.5375 32.4998 16 32.4998C13.4625 32.4998 11.0563 31.8998 8.92505 30.8373V24.1748L12.1188 22.9311C12.9125 22.6248 13.7 22.6936 14.4375 23.1436L16 24.0998L17.5625 23.1436C18.3 22.6936 19.0875 22.6186 19.8813 22.9311L23.0813 24.1748Z" fill="#EA2F2F"/>
<path d="M10.2375 29.7934C10.0125 29.7934 9.82495 29.6121 9.82495 29.3871C9.82495 29.1621 10.0062 28.9746 10.2375 28.9746H12.4875C12.7125 28.9746 12.9 29.1559 12.9 29.3871C12.9 29.6184 12.7187 29.7934 12.4875 29.7934H10.2375Z" fill="#DEE7ED"/>
<path fill-rule="evenodd" clip-rule="evenodd" d="M15.0937 26.8877H16.9L17.3375 32.4439C16.8937 32.4814 16.45 32.5002 16 32.5002C15.55 32.5002 15.1062 32.4814 14.6625 32.4439L15.0937 26.8877Z" fill="#29394A"/>
<path fill-rule="evenodd" clip-rule="evenodd" d="M16.95 27.4752C16.6 27.5564 15.4 27.5564 15.05 27.4752L15.0938 26.8877H16.9L16.95 27.4752Z" fill="#212E3C"/>
<path fill-rule="evenodd" clip-rule="evenodd" d="M18.5312 24.1191L17.575 26.5566C17.4313 26.9191 17.0188 27.1504 16.5438 27.1504H15.4563C14.9813 27.1504 14.5688 26.9254 14.425 26.5566L13.4688 24.1191H18.5312Z" fill="#29394A"/>
<path fill-rule="evenodd" clip-rule="evenodd" d="M13 26.0747L15.7938 24.5122C15.9125 24.4497 15.9813 24.3435 16 24.2122C16.0188 24.081 15.975 23.956 15.8813 23.8622L13.2688 21.2497C12.3438 20.3247 11.4313 20.9185 10.7125 21.6435C10.5063 21.8497 10.4625 22.1497 10.5938 22.3997L12.425 25.9122C12.4813 26.0122 12.5625 26.081 12.675 26.1185C12.7875 26.1435 12.8938 26.131 13 26.0747Z" fill="#E9E9E9"/>
<path fill-rule="evenodd" clip-rule="evenodd" d="M19 26.0747L16.2062 24.5122C16.0875 24.4497 16.0187 24.3435 16 24.2122C15.9812 24.081 16.025 23.956 16.1187 23.8622L18.7312 21.2497C19.6562 20.3247 20.5687 20.9185 21.2937 21.6435C21.5 21.8497 21.5437 22.1497 21.4062 22.3997L19.575 25.9122C19.5187 26.0122 19.4375 26.081 19.325 26.1185C19.2125 26.1435 19.1062 26.131 19 26.0747Z" fill="#E9E9E9"/>
<path fill-rule="evenodd" clip-rule="evenodd" d="M8.92495 26.5748V24.1748L6.3187 25.1873C5.29995 25.5811 4.62495 26.4998 4.51245 27.6123C5.28745 28.4123 6.13745 29.1311 7.0562 29.7561V29.3436C7.0562 28.0936 7.76245 27.0311 8.87495 26.5936L8.92495 26.5748Z" fill="#DEE7ED"/>
<path fill-rule="evenodd" clip-rule="evenodd" d="M8.92505 24.1748V26.5748L12.125 25.3311L11.0813 23.3311L8.92505 24.1748Z" fill="#D32A2A"/>
</g>
<defs>
<clipPath id="clip0_9339_50475">
<rect width="32" height="32" fill="white" transform="translate(0 0.5)"/>
</clipPath>
</defs>
</svg>
