<svg width="315" height="458" viewBox="0 0 315 458" fill="none" xmlns="http://www.w3.org/2000/svg">
<rect width="315" height="457" transform="translate(0 0.5)" fill="white"/>
<path d="M150.962 409.178L130.004 409.466L129.703 389.701L150.579 387.093L150.962 409.178Z" fill="#FE9F73"/>
<path d="M172.495 412.739H129.703V404.128C129.703 404.128 132.816 399.995 137.555 402.105C137.555 402.105 144.571 407.185 150.89 401.114L166.734 407.917C166.734 407.917 172.495 409.811 172.495 412.739Z" fill="#101823"/>
<path d="M129.703 415.75H173.72C174.07 415.75 174.354 415.467 174.354 415.117V413.37C174.354 413.02 174.07 412.736 173.72 412.736H129.703V415.75Z" fill="#D7E4F7"/>
<path d="M155.58 403.126C154.144 405.367 151.261 409.871 149.428 412.737H146.51C148.148 410.177 151.583 404.811 153.291 402.144L155.58 403.126Z" fill="#D7E4F7"/>
<path d="M154.105 412.737H151.188C152.521 410.654 155.12 406.593 156.96 403.719L159.249 404.701C157.703 407.116 155.561 410.463 154.105 412.737Z" fill="#D7E4F7"/>
<path d="M114.878 409.178L93.92 409.466L93.6196 389.701L114.495 387.093L114.878 409.178Z" fill="#FE9F73"/>
<path d="M117.11 238.086C117.804 258.498 120.822 338.342 127.169 390.581C127.587 394.024 130.505 396.623 133.974 396.613C137.814 396.603 143.155 396.145 149.073 394.338C151.934 393.465 153.92 390.863 153.969 387.872L156.549 228.921C156.555 228.535 156.529 228.149 156.47 227.767L156.349 226.982C155.685 222.655 151.193 220.049 147.106 221.619L121.508 231.451C118.777 232.501 117.011 235.162 117.11 238.086Z" fill="#101823"/>
<path d="M88.9618 233.969C88.9618 233.969 87.2195 332.151 91.7627 392.713C91.9775 395.58 94.2533 397.845 97.1193 398.063C101.177 398.372 107.356 398.325 114.321 396.476C116.684 395.849 118.404 393.809 118.614 391.374L130.766 250.57L138.248 211.477L88.9618 233.969Z" fill="#101823"/>
<path d="M100.218 398.197C99.4085 380.027 102.931 266.461 102.968 265.305L99.269 265.189C99.1217 269.928 95.7006 380.055 96.5398 397.985C96.7304 398.019 96.923 398.045 97.1196 398.06C98.0453 398.131 99.0862 398.181 100.218 398.197Z" fill="#D7E4F7"/>
<path d="M135.76 396.572C135.166 374.539 138.524 266.255 138.56 265.126L134.861 265.011C134.717 269.635 131.456 374.61 132.078 396.346C132.682 396.519 133.318 396.611 133.974 396.609C134.537 396.608 135.135 396.596 135.76 396.572Z" fill="#D7E4F7"/>
<path d="M81.145 202.717C81.5731 206.639 83.9222 264.826 90.4506 269.628C96.9786 274.429 159.446 269.815 160.9 264.143C162.355 258.47 153.876 197.662 153.876 197.662L81.145 202.717Z" fill="#FFD12E"/>
<path d="M151.678 175.302C152.522 175.316 185.929 191.053 185.929 191.053L178.65 203.894L159.766 199.069L151.678 175.302Z" fill="#FFD12E"/>
<path d="M104.627 112.864C104.627 112.864 90.2276 111.868 83.2127 115.532C72.7443 121 75.2668 154.447 75.2668 154.447C75.2668 154.447 84.1564 149.984 84.7392 148.416C85.3226 146.847 104.627 112.864 104.627 112.864Z" fill="#FFD12E"/>
<path d="M90.5833 114.992C98.8155 114.137 120.462 114.091 120.462 114.091C120.462 114.091 123.301 114.94 122.403 114.485C146.134 119.515 148.17 137.31 148.17 137.31L158.08 188.864L171.025 190.008C174.951 198.103 171.137 219.449 171.137 219.449L108.08 224.386C108.08 224.386 94.4257 226.162 83.4441 211.043C76.1795 201.042 74.6146 171.041 75.3633 149.185C75.3633 149.185 77.7905 116.321 90.5833 114.992Z" fill="#FFD12E"/>
<path d="M109.232 188.085C109.303 188.115 109.382 188.124 109.463 188.108C109.677 188.065 109.817 187.856 109.774 187.641C109.718 187.359 104.104 159.228 101.909 141.572C101.882 141.354 101.683 141.2 101.466 141.227C101.249 141.254 101.094 141.452 101.122 141.67C103.32 159.356 108.939 187.514 108.996 187.797C109.022 187.931 109.115 188.036 109.232 188.085Z" fill="#101823"/>
<path d="M148.147 188.745C148.082 188.802 147.999 188.839 147.907 188.844C147.688 188.856 147.5 188.689 147.488 188.471C147.469 188.145 145.596 155.778 143.702 145.062C143.664 144.845 143.808 144.64 144.024 144.602C144.239 144.564 144.446 144.708 144.483 144.923C146.385 155.686 148.262 188.099 148.28 188.425C148.288 188.551 148.235 188.667 148.147 188.745Z" fill="#101823"/>
<path d="M152.917 181.729C153.092 181.803 153.3 181.741 153.405 181.575L156.224 177.102L156.194 176.948L148.562 137.248C148.519 136.891 147.897 132.273 144.179 127.079C140.692 122.208 133.703 115.928 120.209 113.663C119.992 113.627 119.788 113.772 119.751 113.988C119.715 114.204 119.861 114.409 120.077 114.446C133.28 116.662 140.106 122.77 143.507 127.504C147.193 132.635 147.77 137.307 147.776 137.354L147.78 137.384L155.385 176.944L152.733 181.151C152.617 181.337 152.672 181.582 152.858 181.699C152.877 181.711 152.897 181.721 152.917 181.729Z" fill="#101823"/>
<path d="M98.6636 185.076C98.6801 185.083 98.6974 185.088 98.7153 185.093L109.239 187.882C109.451 187.937 109.668 187.811 109.725 187.6C109.781 187.388 109.655 187.171 109.443 187.114L98.9186 184.326C98.7068 184.27 98.4895 184.396 98.4331 184.608C98.3821 184.802 98.4835 185 98.6636 185.076Z" fill="#101823"/>
<path d="M166.957 182.353C167.156 182.436 167.386 182.345 167.473 182.146C167.561 181.946 167.47 181.712 167.269 181.623L155.963 176.661C155.755 176.581 155.529 176.664 155.44 176.865C155.353 177.066 155.444 177.3 155.644 177.388L166.95 182.351C166.952 182.352 166.954 182.352 166.957 182.353Z" fill="#101823"/>
<path d="M213.816 219.912L176.652 217.469C174.888 217.353 173.402 215.786 173.609 214.261L181.012 159.53C181.161 158.424 182.173 157.699 183.453 157.783L220.616 160.226C222.38 160.342 223.866 161.908 223.659 163.435L216.257 218.165C216.107 219.271 215.094 219.996 213.816 219.912Z" fill="#101823"/>
<path d="M195.804 208.438C195.842 207.416 194.959 206.521 193.938 206.453L187.62 206.03C187.422 206.017 187.254 205.879 187.202 205.687C187.126 205.404 187.328 205.122 187.621 205.102L196.973 204.483C198.045 204.412 198.694 203.505 198.415 202.468C198.137 201.431 197.032 200.64 195.96 200.711L186.423 201.343C186.201 201.358 186.001 201.214 185.943 200.999L185.902 200.847C185.835 200.599 185.982 200.344 186.23 200.277L196.456 197.531C197.444 197.266 198.136 196.217 197.9 195.221C197.65 194.165 196.58 193.532 195.54 193.811L185.237 196.579C184.989 196.645 184.734 196.498 184.667 196.25L184.538 195.768C184.477 195.543 184.593 195.307 184.809 195.218L193.952 191.43C194.898 191.039 195.448 189.909 195.084 188.952C194.699 187.938 193.556 187.449 192.561 187.861C192.561 187.861 178.498 192.838 176.203 193.444L180.433 191.467C183.545 194.386 180.031 190.402 177.47 189.886C174.633 189.315 167.137 196.255 167.137 196.255C166.793 196.852 167.147 198.186 167.689 199.191C169.78 210.297 170.193 211.991 171.033 214.934L182.587 211.408C185.921 210.392 189.412 209.989 192.889 210.222L193.763 210.28C194.838 210.352 195.764 209.523 195.804 208.438Z" fill="#FE9F73"/>
<path d="M204.212 178.991C204.201 181.012 202.612 182.708 200.662 182.78C198.712 182.852 197.139 181.272 197.15 179.251C197.16 177.23 198.749 175.534 200.699 175.462C202.65 175.39 204.222 176.97 204.212 178.991Z" fill="#FFD12E"/>
<path d="M177.597 189.103L177.072 193.18L181.411 191.732L181.353 188.78L177.597 189.103Z" fill="#101823"/>
<path d="M220.618 159.829L183.454 157.386C181.991 157.29 180.801 158.16 180.626 159.454L176.15 193.51L177.071 193.19L181.397 159.609C181.52 158.698 182.364 158.112 183.45 158.183L220.614 160.626C220.828 160.64 221.003 160.473 221.004 160.254C221.006 160.033 220.832 159.843 220.618 159.829Z" fill="#101823"/>
<path d="M171.025 190.01C171.025 190.01 174.837 199.934 171.138 219.45L167.434 205.429L161.259 196.297L171.025 190.01Z" fill="#FFD12E"/>
<path d="M95.5198 187.971C95.5664 187.991 95.6174 188.002 95.6711 188.002C96.2391 188.004 152.422 188.233 170.733 190.374C171.144 191.595 173.004 197.894 172.035 209.269C172.017 209.488 172.177 209.68 172.397 209.698C172.615 209.717 172.808 209.555 172.826 209.337C173.924 196.447 171.498 190.126 171.394 189.863L171.307 189.643L171.072 189.615C152.976 187.442 96.2452 187.21 95.6742 187.208C95.4549 187.207 95.2766 187.384 95.2759 187.604C95.2752 187.769 95.3759 187.911 95.5198 187.971Z" fill="#101823"/>
<path d="M118.432 223.054C141.374 223.054 169.455 220.094 171.187 219.909C171.44 219.882 171.624 219.654 171.597 219.4C171.57 219.147 171.353 218.961 171.088 218.99C170.462 219.056 108.316 225.608 92.7065 219.489C77.2791 213.441 76.2023 179.451 76.1935 179.108C76.1868 178.853 75.9729 178.647 75.7188 178.659C75.4634 178.665 75.2617 178.878 75.2685 179.133C75.3063 180.557 76.3722 214.079 92.3693 220.35C97.5135 222.366 107.376 223.054 118.432 223.054Z" fill="#101823"/>
<path d="M94.1816 129.59L101.862 116.71L115.359 120.787L120.833 114.963C120.833 114.963 121.998 120.341 121.963 120.787C121.929 121.232 115.797 127.603 115.009 127.535C114.222 127.467 94.1816 129.59 94.1816 129.59Z" fill="#FFD12E"/>
<path d="M95.2761 271.465C95.5163 271.465 95.7193 271.279 95.7366 271.035C95.7545 270.78 95.5632 270.559 95.3085 270.541C88.8288 270.078 87.9385 264.568 86.4644 255.439C86.1996 253.798 85.9256 252.102 85.5956 250.278C83.4012 238.154 82.4352 208.781 82.4264 208.486C82.418 208.235 82.2126 208.038 81.9639 208.038C81.9592 208.038 81.9544 208.038 81.949 208.038C81.6936 208.047 81.4936 208.26 81.5017 208.515C81.5115 208.811 82.4798 238.252 84.6853 250.443C85.0141 252.258 85.2874 253.95 85.5519 255.587C87.0459 264.837 88.0328 270.948 95.2427 271.463C95.2538 271.465 95.2646 271.465 95.2761 271.465Z" fill="#101823"/>
<path d="M127.668 85.0044L125.839 101.211C125.839 101.211 125.45 106.715 120.578 106.859L120.675 114.963C118.911 117.015 118.757 119.442 116.054 119.974C114.733 120.234 116.652 121.111 114.925 120.916C109.446 120.298 103.467 115.1 103.242 112.994C103.017 110.888 105.495 101.227 105.495 101.227L105.872 96.3851L108.604 77.7676L127.668 85.0044Z" fill="#F39D75"/>
<path d="M113.527 91.6152L113.376 91.5334C113.295 91.4361 113.308 91.2915 113.406 91.2105C113.441 91.1814 116.943 88.3238 119.551 90.9591C119.641 91.0496 119.64 91.1949 119.55 91.2841C119.46 91.3733 119.314 91.3726 119.225 91.2824C116.914 88.9475 113.83 91.4557 113.7 91.5642C113.649 91.6054 113.587 91.622 113.527 91.6152Z" fill="#101823"/>
<path d="M123.091 91.3084C123.027 91.301 122.967 91.2669 122.928 91.2101C122.856 91.1054 122.883 90.9625 122.987 90.8909C123.088 90.8216 125.476 89.205 126.719 90.5405C126.806 90.6334 126.8 90.779 126.707 90.8655C126.614 90.952 126.469 90.9466 126.383 90.8537C125.408 89.8074 123.268 91.2547 123.247 91.2696L123.091 91.3084Z" fill="#101823"/>
<path d="M118.039 93.0596C117.996 93.4373 117.656 93.7096 117.277 93.667C116.899 93.6245 116.627 93.2832 116.669 92.9048C116.712 92.5264 117.054 92.2548 117.432 92.2974C117.81 92.3396 118.082 92.6815 118.039 93.0596Z" fill="#101823"/>
<path d="M125.395 93.1963C125.353 93.5747 125.011 93.8464 124.633 93.8041C124.255 93.7616 123.983 93.4197 124.026 93.0413C124.069 92.6635 124.41 92.3912 124.788 92.4341C125.166 92.477 125.438 92.8183 125.395 93.1963Z" fill="#101823"/>
<path d="M109.141 78.74L112.351 84.5822C112.351 84.5822 123.422 90.3853 129.958 85.7286C136.494 81.0719 134.956 78.3079 133.517 75.4449C132.809 74.0341 129.016 70.8961 123.743 72.559C120.865 73.4671 119.247 69.6068 115.845 71.0721C112.444 72.5374 108.317 75.275 108.597 76.5737C108.878 77.8721 109.141 78.74 109.141 78.74Z" fill="#101823"/>
<path d="M109.629 76.4837C109.629 76.4837 104.389 75.6357 102.345 80.5423C100.302 85.449 101.98 88.3289 101.86 89.8469C101.74 91.3649 99.564 101.445 106.808 101.492L110.641 84.8693L108.906 77.8831L109.629 76.4837Z" fill="#101823"/>
<path d="M112.41 92.1832C112.154 94.4519 110.106 96.0837 107.838 95.8283C105.568 95.5722 103.936 93.5248 104.192 91.2561C104.448 88.9867 106.495 87.3549 108.765 87.6103C111.034 87.8664 112.666 89.9135 112.41 92.1832Z" fill="#F39D75"/>
<path d="M107.713 94.2037C106.859 94.1071 106.362 93.4013 106.247 92.7391C106.11 91.9553 106.448 91.2478 107.106 90.9346C108.08 90.4728 108.864 90.9286 109.255 91.2539C109.131 90.7674 108.891 90.3964 108.54 90.1485C107.781 89.6116 106.74 89.8228 106.729 89.8251C106.668 89.838 106.607 89.7984 106.593 89.7366C106.58 89.6741 106.62 89.6133 106.682 89.6005C106.728 89.5907 107.829 89.366 108.671 89.9603C109.157 90.3032 109.453 90.8468 109.55 91.5756L109.605 91.984L109.347 91.662C109.31 91.6168 108.44 90.5562 107.205 91.1428C106.521 91.4671 106.383 92.1847 106.472 92.6996C106.566 93.2351 106.953 93.8868 107.738 93.9753L107.761 93.9777C107.824 93.9845 107.869 94.0402 107.863 94.1027C107.857 94.1659 107.8 94.2122 107.737 94.2061L107.713 94.2037Z" fill="#ED7163"/>
<path d="M109.991 100.951C109.991 100.951 109.278 110.157 120.631 112.324L120.579 106.859C120.579 106.859 112.983 107.513 109.991 100.951Z" fill="#ED7163"/>
<path d="M126.926 98.7219C126.926 98.7219 127.18 109.866 119.847 109.434C109.356 108.815 109.017 102.75 108.948 97.8101L109.977 87.7467L110.64 84.8682C111.284 85.7851 111.616 86.8821 111.59 88.0011C111.534 90.4357 111.336 96.9891 111.905 97.3445C112.709 97.8462 125.421 97.482 126.926 98.7219Z" fill="#101823"/>
<path d="M119.933 97.9514L119.833 97.8606C119.821 97.7987 119.86 97.7379 119.923 97.7251L122.296 97.2267L122.18 91.7606C122.179 91.6971 122.229 91.6444 122.293 91.6437C122.357 91.6406 122.409 91.6927 122.41 91.7559L122.53 97.4129L119.97 97.9501L119.933 97.9514Z" fill="#ED7163"/>
<path d="M117.911 99.9747C117.982 99.9693 122.444 100.367 122.444 100.367C122.444 100.367 121.678 102.144 120.019 102C118.361 101.857 117.911 99.9747 117.911 99.9747Z" fill="#FBFDFC"/>
<path d="M120.603 109.446L120.58 113.728C120.58 113.728 117.24 118.74 114.954 120.341C110.422 117.198 103.188 112.742 103.188 112.742L104.1 107.166C95.6872 106.207 85.8235 111.366 88.0158 114.09C90.2082 116.814 101.603 117.651 104.627 118.644C107.611 119.622 115.233 121.937 115.233 121.937C117.237 120.449 122.619 114.126 122.619 114.126L128.065 115.637C128.17 110.11 120.603 109.446 120.603 109.446Z" fill="#FF7D05"/>
<path d="M136.412 412.739H93.6196V404.128C93.6196 404.128 96.7324 399.995 101.471 402.105C101.471 402.105 108.487 407.185 114.806 401.114L130.65 407.917C130.65 407.917 136.412 409.811 136.412 412.739Z" fill="#101823"/>
<path d="M93.6194 415.75H137.637C137.986 415.75 138.27 415.467 138.27 415.117V413.37C138.27 413.02 137.987 412.736 137.637 412.736H93.6194V415.75Z" fill="#FCFCFE"/>
<path d="M119.496 403.126C118.061 405.367 115.178 409.871 113.344 412.737H110.427C112.065 410.177 115.499 404.811 117.208 402.144L119.496 403.126Z" fill="#D7E4F7"/>
<path d="M118.022 412.737H115.105C116.438 410.654 119.037 406.593 120.877 403.719L123.165 404.701C121.619 407.116 119.477 410.463 118.022 412.737Z" fill="#D7E4F7"/>
<path d="M115.233 122.245C115.313 122.245 115.393 122.214 115.453 122.153L124.959 112.496C125.078 112.375 125.077 112.18 124.955 112.06C124.834 111.941 124.639 111.942 124.519 112.064L115.013 121.72C114.894 121.842 114.895 122.037 115.017 122.156C115.077 122.215 115.155 122.245 115.233 122.245Z" fill="#101823"/>
<path d="M201.002 41.5C222.451 41.5002 239.838 58.8875 239.838 80.3359C239.838 101.784 222.451 119.173 201.002 119.173C196.278 119.173 191.751 118.328 187.563 116.783L161.142 126.442L166.191 97.5674C163.616 92.3749 162.166 86.5249 162.166 80.3359C162.166 58.8874 179.554 41.5 201.002 41.5Z" fill="#04DC86"/>
<path opacity="0.4" d="M203.612 70.869C202.911 70.7394 202.266 71.1871 202.133 71.8719C201.999 72.5567 202.448 73.2253 203.131 73.3593C205.185 73.7599 206.772 75.3504 207.174 77.4122V77.4137C207.289 78.0072 207.811 78.4387 208.413 78.4387C208.494 78.4387 208.574 78.4313 208.656 78.4166C209.339 78.2797 209.788 77.6125 209.654 76.9262C209.054 73.8468 206.684 71.4684 203.612 70.869Z" fill="white"/>
<path opacity="0.4" d="M203.52 65.7373C203.192 65.6901 202.861 65.7873 202.599 65.9965C202.329 66.2085 202.16 66.5149 202.123 66.858C202.045 67.5516 202.546 68.179 203.239 68.2571C208.016 68.7902 211.729 72.5117 212.266 77.3039C212.338 77.946 212.877 78.4305 213.52 78.4305C213.568 78.4305 213.615 78.4276 213.663 78.4217C214 78.3848 214.299 78.2184 214.51 77.9533C214.72 77.6883 214.816 77.3584 214.777 77.0211C214.108 71.0419 209.481 66.4015 203.52 65.7373Z" fill="white"/>
<path fill-rule="evenodd" clip-rule="evenodd" d="M198.621 81.8947C204.5 87.7718 205.834 80.9726 209.577 84.7131C213.185 88.3206 215.259 89.0434 210.687 93.6142C210.114 94.0744 206.476 99.6115 193.688 86.8276C180.899 74.0422 186.433 70.3998 186.894 69.8273C191.477 65.2439 192.187 67.33 195.796 70.9375C199.539 74.6795 192.742 76.0176 198.621 81.8947Z" fill="white"/>
</svg>
