<?xml version="1.0" encoding="UTF-8"?>
<svg
  width="64"
  height="64"
  viewBox="0 0 64 64"
  fill="none"
  xmlns="http://www.w3.org/2000/svg"
>
  <path
    d="M24.9315 39.6211C14.3614 39.6211 5.33331 41.2539 5.33331 47.7801C5.33331 54.3114 14.304 56.0005 24.9315 56.0005C35.5017 56.0005 44.5298 54.3676 44.5298 47.8414C44.5298 41.3101 35.5591 39.6211 24.9315 39.6211Z"
    fill="#03B46D"
  />
  <path
    opacity="0.4"
    d="M24.9315 33.3995C32.1305 33.3995 37.8996 27.7498 37.8996 20.6998C37.8996 13.6497 32.1305 8 24.9315 8C17.7351 8 11.9634 13.6497 11.9634 20.6998C11.9634 27.7498 17.7351 33.3995 24.9315 33.3995Z"
    fill="#03B46D"
  />
  <path
    opacity="0.4"
    d="M43.1291 20.9299C43.1291 24.5201 42.028 27.8701 40.0971 30.6528C39.8962 30.939 40.0736 31.3248 40.4233 31.3862C40.9086 31.4654 41.407 31.5139 41.9158 31.5242C46.9778 31.6545 51.5205 28.4629 52.7755 23.6564C54.636 16.5246 49.1774 10.1211 42.2237 10.1211C41.4696 10.1211 40.7468 10.1978 40.0423 10.3383C39.9458 10.3587 39.8414 10.4047 39.7892 10.4865C39.7214 10.5913 39.7709 10.7267 39.8388 10.8161C41.9288 13.6857 43.1291 17.1788 43.1291 20.9299Z"
    fill="#03B46D"
  />
  <path
    d="M58.0776 40.452C57.1513 38.5176 54.9152 37.1914 51.5127 36.5398C49.908 36.1566 45.561 35.6123 41.5192 35.6889C41.4592 35.6966 41.4253 35.7375 41.4201 35.763C41.4122 35.8039 41.4305 35.8652 41.5088 35.9087C43.377 36.8133 50.5969 40.7484 49.6888 49.048C49.6497 49.4108 49.9445 49.7174 50.3124 49.6663C52.0894 49.4185 56.6608 48.4551 58.0776 45.4603C58.863 43.8761 58.863 42.0363 58.0776 40.452Z"
    fill="#03B46D"
  />
</svg>
