<svg width="32" height="33" viewBox="0 0 32 33" fill="none" xmlns="http://www.w3.org/2000/svg">
<g clip-path="url(#clip0_9339_50374)">
<path fill-rule="evenodd" clip-rule="evenodd" d="M16 0.5C24.8 0.5 32 7.7 32 16.5C32 25.3 24.8 32.5 16 32.5C7.2 32.5 0 25.3 0 16.5C0 7.7 7.2 0.5 16 0.5Z" fill="#4BAAF5"/>
<path fill-rule="evenodd" clip-rule="evenodd" d="M3.93125 16.5C3.93125 8.3625 10.0813 1.59375 17.9688 0.61875C17.3188 0.54375 16.6688 0.5 16 0.5C7.2 0.5 0 7.7 0 16.5C0 25.3 7.2 32.5 16 32.5C16.6688 32.5 17.3188 32.4563 17.9625 32.3813C10.0812 31.4062 3.93125 24.6375 3.93125 16.5Z" fill="#4499DD"/>
<path fill-rule="evenodd" clip-rule="evenodd" d="M19.8312 23.0692L25.55 25.2879C26.575 25.6879 27.25 26.6317 27.3375 27.7629C24.4312 30.6879 20.4187 32.5004 16 32.5004C11.5812 32.5004 7.56873 30.6879 4.66248 27.7629C4.74373 26.6317 5.41873 25.6879 6.44998 25.2879L12.1687 23.0629C13.65 22.4879 14.7562 23.4566 16 24.2191C17.2437 23.4629 18.35 22.4942 19.8312 23.0692Z" fill="#EEF1F3"/>
<path fill-rule="evenodd" clip-rule="evenodd" d="M9.20623 26.5811L12.6937 25.2248L11.8375 23.5811C11.775 23.4623 11.7625 23.3248 11.8062 23.2061L6.44998 25.2873C5.42498 25.6873 4.74998 26.6311 4.66248 27.7623C5.49373 28.5998 6.41248 29.3436 7.41248 29.9811V29.2873C7.41248 28.0623 8.10623 27.0123 9.20623 26.5811Z" fill="#DEE7ED"/>
<path d="M22.9813 27.7248C22.9688 27.7248 22.9563 27.7248 22.9375 27.7248C22.9188 27.7248 22.9125 27.7248 22.8938 27.7248C22.5563 27.7373 22.2438 27.8811 22.0188 28.1061C21.7875 28.3373 21.6375 28.6623 21.6375 29.0186V30.5936C21.6375 30.7561 21.5063 30.8811 21.35 30.8811C21.1938 30.8811 21.0625 30.7498 21.0625 30.5936V29.0186C21.0625 28.4998 21.275 28.0311 21.6125 27.6936C21.8875 27.4186 22.25 27.2248 22.65 27.1686V23.6811C22.65 23.2186 22.4875 22.8061 22.2313 22.5061C21.9875 22.2186 21.65 22.0373 21.2813 22.0373H10.4063C10.0375 22.0373 9.70002 22.2186 9.45627 22.5061C9.20002 22.8061 9.03753 23.2248 9.03753 23.6811V26.2811C9.03753 26.4436 8.90627 26.5686 8.75002 26.5686C8.58752 26.5686 8.46252 26.4373 8.46252 26.2811V23.6811C8.46252 23.0811 8.67502 22.5248 9.01877 22.1248C9.37502 21.7123 9.86253 21.4561 10.4125 21.4561H21.2875C21.8313 21.4561 22.325 21.7123 22.6813 22.1248C23.025 22.5248 23.2375 23.0748 23.2375 23.6811V27.1686C23.6375 27.2311 24 27.4248 24.275 27.6936C24.6125 28.0311 24.825 28.5061 24.825 29.0186V29.8311C24.6313 29.9561 24.4375 30.0811 24.2438 30.1998V29.0186C24.2438 28.6623 24.0938 28.3373 23.8625 28.1061C23.6313 27.8811 23.3188 27.7373 22.9813 27.7248Z" fill="#323E4B"/>
<path fill-rule="evenodd" clip-rule="evenodd" d="M12.6562 17.4756H19.3438V22.7381C19.3438 24.5756 17.8375 26.0818 16 26.0818C14.1625 26.0818 12.6562 24.5756 12.6562 22.7381V17.4756Z" fill="#FBBD80"/>
<path fill-rule="evenodd" clip-rule="evenodd" d="M15 26.8691H17L17.6437 32.4191C17.1062 32.4754 16.5562 32.5004 16 32.5004C15.4437 32.5004 14.8937 32.4691 14.3562 32.4191L15 26.8691Z" fill="#006694"/>
<path fill-rule="evenodd" clip-rule="evenodd" d="M17.1187 27.8748C16.6875 28.0498 15.3562 28.0748 14.8812 27.8748L15 26.8623H17L17.1187 27.8748Z" fill="#005378"/>
<path fill-rule="evenodd" clip-rule="evenodd" d="M18.3 24.9375L17.4312 27.1C17.3 27.425 16.925 27.625 16.4937 27.625H15.5062C15.075 27.625 14.7 27.425 14.5687 27.1L13.7 24.9375H18.3Z" fill="#006694"/>
<path fill-rule="evenodd" clip-rule="evenodd" d="M13.5875 26.2873L16 24.9373L13.8 22.7373C13.125 22.0561 12.4562 22.4936 11.925 23.0248C11.775 23.1748 11.7437 23.3936 11.8375 23.5811L13.1875 26.1686C13.225 26.2436 13.2875 26.2873 13.3625 26.3123C13.4375 26.3373 13.5187 26.3311 13.5875 26.2873Z" fill="#D6D9DB"/>
<path fill-rule="evenodd" clip-rule="evenodd" d="M18.4125 26.2873L16 24.9373L18.2 22.7373C18.8813 22.0561 19.55 22.4936 20.0812 23.0248C20.2312 23.1748 20.2625 23.3936 20.1688 23.5811L18.8125 26.1686C18.775 26.2436 18.7188 26.2873 18.6375 26.3123C18.5625 26.3373 18.4813 26.3311 18.4125 26.2873Z" fill="#D6D9DB"/>
<path fill-rule="evenodd" clip-rule="evenodd" d="M23.3375 13.6877V8.1752C23.3375 6.38145 21.875 4.9627 20.0937 4.9627C19.9562 4.2877 19.1687 3.7627 18.225 3.7627H14.175C11.1687 3.7627 8.73748 5.5877 8.71873 7.8252L8.66248 13.6877H23.3375Z" fill="#323E4B"/>
<path fill-rule="evenodd" clip-rule="evenodd" d="M8.67498 12.75H23.3187C23.9562 12.75 24.4812 13.275 24.4812 13.9125C24.4812 14.55 23.9562 15.075 23.3187 15.075H8.67498C8.03123 15.075 7.50623 14.55 7.50623 13.9125C7.51248 13.275 8.03748 12.75 8.67498 12.75Z" fill="#FBBD80"/>
<path fill-rule="evenodd" clip-rule="evenodd" d="M19.3438 20.1125C18.3562 20.6625 17.225 20.9688 16.025 20.9688C14.8 20.9688 13.65 20.6437 12.6562 20.0812V17.4688H19.3438V20.1125Z" fill="#E2AA73"/>
<path fill-rule="evenodd" clip-rule="evenodd" d="M20.0062 9.46906V11.0003C20.0062 11.6941 20.5687 12.7503 21.2625 12.7503H22.1687L22.1812 14.1066C22.2062 17.4878 19.4125 20.2566 16.0312 20.2566C12.65 20.2566 9.88123 17.4878 9.88123 14.1066V12.7503H10.75C11.6937 12.7503 12.0062 11.3941 12.0062 10.6566C12.0062 10.4628 12.1625 10.3066 12.3562 10.3066C14.6375 10.3003 16.275 10.2066 18.9 8.80031C19.3937 8.53156 20.0062 8.89406 20.0062 9.46906Z" fill="#FFD18D"/>
<path fill-rule="evenodd" clip-rule="evenodd" d="M11.8938 11.4756C11.7375 12.1193 11.3875 12.7568 10.7375 12.7568H9.86877V14.1131C9.86877 14.4443 9.89378 14.7693 9.94378 15.0881C10.225 16.8256 11.2375 18.3256 12.65 19.2568C13.6188 19.8943 14.775 20.2693 16.0188 20.2693C17.1875 20.2693 18.2938 19.9381 19.2313 19.3631C16.1375 19.9756 13.0625 18.1256 12.15 15.0881C11.7938 13.8756 11.8938 12.7068 11.8938 11.4756Z" fill="#FBBD80"/>
<path fill-rule="evenodd" clip-rule="evenodd" d="M9.65623 27.4375C9.65623 27.1875 9.55623 26.9625 9.38748 26.8C9.22498 26.6375 8.99998 26.5312 8.74998 26.5312C8.49998 26.5312 8.27498 26.6312 8.11248 26.8C7.94998 26.9625 7.84998 27.1875 7.84998 27.4375C7.84998 27.6875 7.94998 27.9125 8.11248 28.075C8.27498 28.2375 8.49998 28.3375 8.74998 28.3375C8.99998 28.3375 9.22498 28.2375 9.38748 28.075C9.55623 27.9125 9.65623 27.6875 9.65623 27.4375Z" fill="#60B7FF"/>
<path d="M8.75 26.1562C9.1 26.1562 9.41875 26.3 9.65625 26.5312C9.8875 26.7625 10.0312 27.0813 10.0312 27.4375C10.0312 27.7875 9.8875 28.1125 9.65625 28.3438C9.425 28.575 9.10625 28.7188 8.75 28.7188C8.39375 28.7188 8.075 28.575 7.84375 28.3438C7.6125 28.1125 7.46875 27.7938 7.46875 27.4375C7.46875 27.0875 7.6125 26.7688 7.84375 26.5312C8.08125 26.3 8.4 26.1562 8.75 26.1562ZM9.24375 26.9438C9.11875 26.8188 8.94375 26.7375 8.75 26.7375C8.55625 26.7375 8.38125 26.8125 8.25625 26.9438C8.13125 27.0688 8.05 27.2437 8.05 27.4375C8.05 27.6313 8.125 27.8062 8.25625 27.9312C8.38125 28.0562 8.55625 28.1375 8.75 28.1375C8.94375 28.1375 9.1125 28.0625 9.24375 27.9312C9.36875 27.8062 9.45 27.6313 9.45 27.4375C9.45 27.2437 9.36875 27.0688 9.24375 26.9438Z" fill="#323E4B"/>
</g>
<defs>
<clipPath id="clip0_9339_50374">
<rect width="32" height="32" fill="white" transform="translate(0 0.5)"/>
</clipPath>
</defs>
</svg>
