<svg width="33" height="33" viewBox="0 0 33 33" fill="none" xmlns="http://www.w3.org/2000/svg">
<g clip-path="url(#clip0_11620_2023)">
<path d="M31.8125 17.1875C31.8125 25.6443 24.9568 32.5 16.5 32.5C8.04321 32.5 1.1875 25.6443 1.1875 17.1875C1.1875 8.73071 8.04321 1.875 16.5 1.875C24.9568 1.875 31.8125 8.73071 31.8125 17.1875Z" fill="#3EB7FF"/>
<path d="M8.71582 30.375C10.9968 31.7246 13.6577 32.5 16.5 32.5C19.3423 32.5 22.0032 31.7246 24.2842 30.375H8.71582Z" fill="#02AF8E"/>
<path d="M16.9062 0.812256V2.875H20.0625C20.2344 2.875 20.375 2.73438 20.375 2.5625V1C20.375 0.828125 20.2344 0.6875 20.0625 0.6875H16.8716C16.8931 0.724365 16.9062 0.766602 16.9062 0.812256Z" fill="#FE3745"/>
<path d="M18.0625 0.6875H16.8716C16.8931 0.724365 16.9062 0.766602 16.9062 0.812256V2.875H18.0625C17.8906 2.875 17.75 2.73438 17.75 2.5625V1C17.75 0.828125 17.8906 0.6875 18.0625 0.6875Z" fill="#EA2A3D"/>
<path d="M16.0315 4.42358C16.1619 4.31177 16.3281 4.25 16.5 4.25C16.6719 4.25 16.8381 4.31177 16.9685 4.42358L16.9688 4.42383V0.8125C16.9688 0.640625 16.8281 0.5 16.6562 0.5H16.3438C16.1719 0.5 16.0312 0.640625 16.0312 0.8125V4.42383L16.0315 4.42358Z" fill="#445EA0"/>
<path d="M2.56372 14.168C2.39185 14.168 2.25122 14.3086 2.25122 14.4805V22.8064C3.13721 25.0515 4.53979 27.0354 6.31079 28.6155H10.7346V14.168H2.56372Z" fill="#FFD00D"/>
<path d="M30.4363 14.168H22.2654V28.6155H26.6892C28.4602 27.0356 29.8628 25.0515 30.7488 22.8064V14.4805C30.7488 14.3086 30.6082 14.168 30.4363 14.168Z" fill="#FFD00D"/>
<path d="M4.1875 14.4805C4.1875 14.3086 4.32812 14.168 4.5 14.168H2.56372C2.39185 14.168 2.25122 14.3086 2.25122 14.4805V22.8064C2.74463 24.0574 3.39893 25.2273 4.1875 26.2917V14.4805Z" fill="#EDC10A"/>
<path d="M7.30908 28.615H9.92407C9.93188 28.5464 9.9375 28.4771 9.9375 28.4062C9.9375 27.3879 9.11206 26.5625 8.09375 26.5625C7.38696 26.5625 6.77344 26.9602 6.46411 27.5439C6.86768 27.7722 7.18018 28.1531 7.30908 28.615Z" fill="#02AF8E"/>
<path d="M8.09375 26.5625C7.38696 26.5625 6.77344 26.9602 6.46411 27.5439C6.77515 27.72 7.03101 27.9866 7.19165 28.311C7.23315 27.4973 7.80103 26.8225 8.5625 26.6228C8.41284 26.5835 8.25586 26.5625 8.09375 26.5625Z" fill="#159E97"/>
<path d="M7.37402 28.615C7.16309 27.8289 6.44629 27.25 5.59375 27.25C5.39893 27.25 5.21143 27.2805 5.03516 27.3364C5.43481 27.7876 5.86157 28.2139 6.31104 28.615H7.37402Z" fill="#60D882"/>
<path d="M26.5291 27.5303C26.2173 26.9539 25.6074 26.5625 24.9062 26.5625C23.8879 26.5625 23.0625 27.3879 23.0625 28.4062C23.0625 28.4771 23.0681 28.5464 23.0759 28.615H25.7234C25.8457 28.1594 26.1387 27.7742 26.5291 27.5303Z" fill="#02AF8E"/>
<path d="M24.0137 28.615C24.0056 28.5464 24 28.4771 24 28.4062C24 27.55 24.5837 26.8303 25.375 26.6228C25.2253 26.5835 25.0684 26.5625 24.9062 26.5625C23.8879 26.5625 23.0625 27.3879 23.0625 28.4062C23.0625 28.4771 23.0681 28.5464 23.0759 28.615H24.0137Z" fill="#159E97"/>
<path d="M26.689 28.615C27.1384 28.2139 27.5652 27.7876 27.9648 27.3364C27.7886 27.2805 27.6011 27.25 27.4062 27.25C26.5535 27.25 25.8367 27.8291 25.626 28.6152H26.689V28.615Z" fill="#60D882"/>
<path d="M6.28027 28.5898C7.02905 29.2615 7.84448 29.8601 8.71533 30.3752H10.7346V28.5898H6.28027Z" fill="#DB722C"/>
<path d="M22.2654 28.5898V30.3752H24.2847C25.1555 29.8601 25.9709 29.2615 26.7197 28.5898H22.2654Z" fill="#DB722C"/>
<path d="M16.5 5.91602L10.7034 10.8987V30.3745H22.2966V10.8987L16.5 5.91602Z" fill="#FFAF10"/>
<path d="M16.5 5.91602L10.7034 10.8987V30.3745H11.6565V11.2036L17.1541 6.47803L16.5 5.91602Z" fill="#EF9614"/>
<path d="M12.5625 24.3125H20.4375V30.375H12.5625V24.3125Z" fill="#445EA0"/>
<path d="M18.9375 11.375C18.9375 12.7212 17.8462 13.8125 16.5 13.8125C15.1538 13.8125 14.0625 12.7212 14.0625 11.375C14.0625 10.0288 15.1538 8.9375 16.5 8.9375C17.8462 8.9375 18.9375 10.0288 18.9375 11.375Z" fill="white"/>
<path d="M15 11.375C15 10.1892 15.8469 9.20166 16.9688 8.98291C16.8169 8.95337 16.6604 8.9375 16.5 8.9375C15.1538 8.9375 14.0625 10.0288 14.0625 11.375C14.0625 12.7212 15.1538 13.8125 16.5 13.8125C16.6604 13.8125 16.8169 13.7966 16.9688 13.7671C15.8469 13.5483 15 12.5608 15 11.375Z" fill="#EEF6FF"/>
<path d="M13.8784 24.3125H19.1216V30.375H13.8784V24.3125Z" fill="white"/>
<path d="M13.8784 24.3125H14.8193V30.375H13.8784V24.3125Z" fill="#EEF6FF"/>
<path d="M16.0312 24.3125H16.9688V30.375H16.0312V24.3125Z" fill="#445EA0"/>
<path d="M13.3296 17.8125C13.3296 17.9155 13.2454 18 13.1421 18H12.0076C11.9043 18 11.8201 17.9155 11.8201 17.8125V15.625C11.8201 15.522 11.9043 15.4375 12.0076 15.4375H13.1421C13.2454 15.4375 13.3296 15.522 13.3296 15.625V17.8125Z" fill="#FFD782"/>
<path d="M15.9465 17.8125C15.9465 17.9155 15.8621 18 15.759 18H14.6243C14.5212 18 14.4368 17.9155 14.4368 17.8125V15.625C14.4368 15.522 14.5212 15.4375 14.6243 15.4375H15.759C15.8621 15.4375 15.9465 15.522 15.9465 15.625V17.8125Z" fill="#FFD782"/>
<path d="M18.5632 17.8125C18.5632 17.9155 18.4788 18 18.3757 18H17.241C17.1379 18 17.0535 17.9155 17.0535 17.8125V15.625C17.0535 15.522 17.1379 15.4375 17.241 15.4375H18.3757C18.4788 15.4375 18.5632 15.522 18.5632 15.625V17.8125Z" fill="#FFD782"/>
<path d="M21.1799 17.8125C21.1799 17.9155 21.0955 18 20.9924 18H19.8579C19.7546 18 19.6704 17.9155 19.6704 17.8125V15.625C19.6704 15.522 19.7546 15.4375 19.8579 15.4375H20.9924C21.0955 15.4375 21.1799 15.522 21.1799 15.625V17.8125Z" fill="#FFD782"/>
<path d="M13.3296 21.5625C13.3296 21.6655 13.2454 21.75 13.1421 21.75H12.0076C11.9043 21.75 11.8201 21.6655 11.8201 21.5625V19.375C11.8201 19.272 11.9043 19.1875 12.0076 19.1875H13.1421C13.2454 19.1875 13.3296 19.272 13.3296 19.375V21.5625Z" fill="white"/>
<path d="M15.9465 21.5625C15.9465 21.6655 15.8621 21.75 15.759 21.75H14.6243C14.5212 21.75 14.4368 21.6655 14.4368 21.5625V19.375C14.4368 19.272 14.5212 19.1875 14.6243 19.1875H15.759C15.8621 19.1875 15.9465 19.272 15.9465 19.375V21.5625Z" fill="white"/>
<path d="M18.5632 21.5625C18.5632 21.6655 18.4788 21.75 18.3757 21.75H17.241C17.1379 21.75 17.0535 21.6655 17.0535 21.5625V19.375C17.0535 19.272 17.1379 19.1875 17.241 19.1875H18.3757C18.4788 19.1875 18.5632 19.272 18.5632 19.375V21.5625Z" fill="white"/>
<path d="M21.1799 21.5625C21.1799 21.6655 21.0955 21.75 20.9924 21.75H19.8579C19.7546 21.75 19.6704 21.6655 19.6704 21.5625V19.375C19.6704 19.272 19.7546 19.1875 19.8579 19.1875H20.9924C21.0955 19.1875 21.1799 19.272 21.1799 19.375V21.5625Z" fill="white"/>
<path d="M4.70386 17.8125C4.70386 17.9155 4.61963 18 4.51636 18H3.38184C3.27856 18 3.19434 17.9155 3.19434 17.8125V15.625C3.19434 15.522 3.27856 15.4375 3.38184 15.4375H4.51636C4.61938 15.4375 4.70386 15.522 4.70386 15.625V17.8125Z" fill="white"/>
<path d="M7.3208 17.8125C7.3208 17.9155 7.23633 18 7.1333 18H5.99854C5.89551 18 5.81104 17.9155 5.81104 17.8125V15.625C5.81104 15.522 5.89551 15.4375 5.99854 15.4375H7.1333C7.23633 15.4375 7.3208 15.522 7.3208 15.625V17.8125Z" fill="white"/>
<path d="M9.9375 17.8125C9.9375 17.9155 9.85303 18 9.75 18H8.61523C8.51221 18 8.42773 17.9155 8.42773 17.8125V15.625C8.42773 15.522 8.51221 15.4375 8.61523 15.4375H9.75C9.85303 15.4375 9.9375 15.522 9.9375 15.625V17.8125Z" fill="white"/>
<path d="M4.70386 21.5625C4.70386 21.6655 4.61963 21.75 4.51636 21.75H3.38184C3.27856 21.75 3.19434 21.6655 3.19434 21.5625V19.375C3.19434 19.272 3.27856 19.1875 3.38184 19.1875H4.51636C4.61938 19.1875 4.70386 19.272 4.70386 19.375V21.5625Z" fill="white"/>
<path d="M7.3208 21.5625C7.3208 21.6655 7.23633 21.75 7.1333 21.75H5.99854C5.89551 21.75 5.81104 21.6655 5.81104 21.5625V19.375C5.81104 19.272 5.89551 19.1875 5.99854 19.1875H7.1333C7.23633 19.1875 7.3208 19.272 7.3208 19.375V21.5625Z" fill="white"/>
<path d="M9.9375 21.5625C9.9375 21.6655 9.85303 21.75 9.75 21.75H8.61523C8.51221 21.75 8.42773 21.6655 8.42773 21.5625V19.375C8.42773 19.272 8.51221 19.1875 8.61523 19.1875H9.75C9.85303 19.1875 9.9375 19.272 9.9375 19.375V21.5625Z" fill="white"/>
<path d="M4.51636 23H3.38184C3.27856 23 3.19434 23.0845 3.19434 23.1875V24.77C3.34814 25.0396 3.5105 25.3037 3.67993 25.5625H4.51636C4.61963 25.5625 4.70386 25.478 4.70386 25.375V23.1875C4.70386 23.0845 4.61963 23 4.51636 23Z" fill="white"/>
<path d="M7.3208 25.375C7.3208 25.478 7.23633 25.5625 7.1333 25.5625H5.99854C5.89551 25.5625 5.81104 25.478 5.81104 25.375V23.1875C5.81104 23.0845 5.89551 23 5.99854 23H7.1333C7.23633 23 7.3208 23.0845 7.3208 23.1875V25.375Z" fill="white"/>
<path d="M9.9375 25.375C9.9375 25.478 9.85303 25.5625 9.75 25.5625H8.61523C8.51221 25.5625 8.42773 25.478 8.42773 25.375V23.1875C8.42773 23.0845 8.51221 23 8.61523 23H9.75C9.85303 23 9.9375 23.0845 9.9375 23.1875V25.375Z" fill="white"/>
<path d="M24.572 17.8125C24.572 17.9155 24.4878 18 24.3845 18H23.25C23.147 18 23.0625 17.9155 23.0625 17.8125V15.625C23.0625 15.522 23.147 15.4375 23.25 15.4375H24.3845C24.4878 15.4375 24.572 15.522 24.572 15.625V17.8125Z" fill="white"/>
<path d="M27.189 17.8125C27.189 17.9155 27.1045 18 27.0015 18H25.8667C25.7637 18 25.6792 17.9155 25.6792 17.8125V15.625C25.6792 15.522 25.7637 15.4375 25.8667 15.4375H27.0015C27.1045 15.4375 27.189 15.522 27.189 15.625V17.8125Z" fill="white"/>
<path d="M29.8057 17.8125C29.8057 17.9155 29.7214 18 29.6182 18H28.4836C28.3804 18 28.2961 17.9155 28.2961 17.8125V15.625C28.2961 15.522 28.3804 15.4375 28.4836 15.4375H29.6182C29.7214 15.4375 29.8057 15.522 29.8057 15.625V17.8125Z" fill="white"/>
<path d="M24.572 21.5625C24.572 21.6655 24.4878 21.75 24.3845 21.75H23.25C23.147 21.75 23.0625 21.6655 23.0625 21.5625V19.375C23.0625 19.272 23.147 19.1875 23.25 19.1875H24.3845C24.4878 19.1875 24.572 19.272 24.572 19.375V21.5625Z" fill="white"/>
<path d="M27.189 21.5625C27.189 21.6655 27.1045 21.75 27.0015 21.75H25.8667C25.7637 21.75 25.6792 21.6655 25.6792 21.5625V19.375C25.6792 19.272 25.7637 19.1875 25.8667 19.1875H27.0015C27.1045 19.1875 27.189 19.272 27.189 19.375V21.5625Z" fill="white"/>
<path d="M29.8057 21.5625C29.8057 21.6655 29.7214 21.75 29.6182 21.75H28.4836C28.3804 21.75 28.2961 21.6655 28.2961 21.5625V19.375C28.2961 19.272 28.3804 19.1875 28.4836 19.1875H29.6182C29.7214 19.1875 29.8057 19.272 29.8057 19.375V21.5625Z" fill="white"/>
<path d="M24.572 25.375C24.572 25.478 24.4878 25.5625 24.3845 25.5625H23.25C23.147 25.5625 23.0625 25.478 23.0625 25.375V23.1875C23.0625 23.0845 23.147 23 23.25 23H24.3845C24.4878 23 24.572 23.0845 24.572 23.1875V25.375Z" fill="white"/>
<path d="M27.189 25.375C27.189 25.478 27.1045 25.5625 27.0015 25.5625H25.8667C25.7637 25.5625 25.6792 25.478 25.6792 25.375V23.1875C25.6792 23.0845 25.7637 23 25.8667 23H27.0015C27.1045 23 27.189 23.0845 27.189 23.1875V25.375Z" fill="white"/>
<path d="M29.8057 23.1875C29.8057 23.0845 29.7214 23 29.6182 23H28.4836C28.3804 23 28.2961 23.0845 28.2961 23.1875V25.375C28.2961 25.478 28.3804 25.5625 28.4836 25.5625H29.3201C29.4895 25.3035 29.6519 25.0396 29.8059 24.77V23.1875H29.8057Z" fill="white"/>
<path d="M17.625 11.8438H16.5C16.241 11.8438 16.0312 11.6338 16.0312 11.375V9.9375C16.0312 9.67871 16.241 9.46875 16.5 9.46875C16.759 9.46875 16.9688 9.67871 16.9688 9.9375V10.9062H17.625C17.884 10.9062 18.0938 11.1162 18.0938 11.375C18.0938 11.6338 17.884 11.8438 17.625 11.8438Z" fill="#0F9390"/>
<path d="M23.3622 11.7981C23.2902 11.7981 23.2177 11.7732 23.1586 11.7224L16.4999 5.99902L9.84125 11.7224C9.78217 11.7732 9.70966 11.7979 9.63763 11.7979C9.54974 11.7979 9.46234 11.761 9.40057 11.6892L8.78949 10.978C8.73529 10.9153 8.70843 10.8335 8.71478 10.751C8.72113 10.6682 8.75995 10.5916 8.82269 10.5374L15.9907 4.37622C16.1323 4.25464 16.3132 4.1875 16.4999 4.1875C16.6867 4.1875 16.8676 4.25464 17.0092 4.37622L24.1772 10.5376C24.2402 10.5916 24.279 10.6685 24.2851 10.751C24.2914 10.8337 24.2646 10.9153 24.2106 10.9783L23.5995 11.6892C23.5375 11.761 23.4501 11.7981 23.3622 11.7981Z" fill="#2E4C89"/>
<path d="M9.75336 10.9783C9.6994 10.9153 9.67255 10.8337 9.67865 10.751C9.685 10.6682 9.72382 10.5916 9.7868 10.5376L16.9548 4.37622C16.9636 4.36865 16.9728 4.36182 16.9819 4.35474C16.8447 4.24707 16.6752 4.1875 16.4999 4.1875C16.3132 4.1875 16.1323 4.25464 15.9907 4.37622L8.82269 10.5376C8.7597 10.5916 8.72089 10.6682 8.71478 10.751C8.70844 10.8335 8.73529 10.9153 8.78925 10.9783L9.40033 11.6892C9.46234 11.761 9.54974 11.7981 9.63763 11.7981C9.70966 11.7981 9.78217 11.7732 9.84125 11.7224L10.1584 11.4497L9.75336 10.9783Z" fill="#293D7C"/>
<path d="M21.0625 24.0625C21.0625 24.2344 20.9219 24.375 20.75 24.375H12.25C12.0781 24.375 11.9375 24.2344 11.9375 24.0625V23.3125C11.9375 23.1406 12.0781 23 12.25 23H20.75C20.9219 23 21.0625 23.1406 21.0625 23.3125V24.0625Z" fill="#2E4C89"/>
<path d="M13.8125 24.0625V23.3125C13.8125 23.1406 13.9531 23 14.125 23H12.25C12.0781 23 11.9375 23.1406 11.9375 23.3125V24.0625C11.9375 24.2344 12.0781 24.375 12.25 24.375H14.125C13.9531 24.375 13.8125 24.2344 13.8125 24.0625Z" fill="#293D7C"/>
</g>
<defs>
<clipPath id="clip0_11620_2023">
<rect width="32" height="32" fill="white" transform="translate(0.5 0.5)"/>
</clipPath>
</defs>
</svg>
