<svg
                  width="64"
                  height="64"
                  viewBox="0 0 64 64"
                  fill="none"
                  xmlns="http://www.w3.org/2000/svg"
                >
                  <path
                    d="M31.9629 1.99456C31.8184 2.00212 31.6772 2.0392 31.5488 2.10609C31.5488 2.10609 19.6728 8.02987 4.86328 10.0045C4.36572 10.0733 3.99631 10.5003 4 11.0025V31.9948C4 44.8548 11.0406 52.4831 17.9824 56.7253C24.9242 60.9674 31.8516 61.9889 31.8516 61.9889C31.9499 62.004 32.05 62.004 32.1484 61.9889C32.1484 61.9889 39.0758 60.9674 46.0176 56.7253C52.9594 52.4831 60 44.8548 60 31.9948V11.0025C60.0042 10.5003 59.6343 10.0732 59.1367 10.0045C44.3272 8.02987 32.4512 2.10609 32.4512 2.10609C32.3005 2.02824 32.1325 1.98964 31.9629 1.99456ZM31.9999 13.9985C41.9292 13.9985 49.996 22.0653 49.996 31.9946C49.996 41.9238 41.9292 50.0005 31.9999 50.0005C22.0707 50.0005 14.0038 41.9238 14.0038 31.9946C14.0038 22.0653 22.0707 13.9985 31.9999 13.9985Z"
                    fill="#03B46D"
                  />
                  <path
                    fillRule="evenodd"
                    clipRule="evenodd"
                    d="M29 22C28.4477 22 28 22.4477 28 23V27.5H23.5C22.9477 27.5 22.5 27.9477 22.5 28.5V34.5C22.5 35.0523 22.9477 35.5 23.5 35.5H28V40C28 40.5523 28.4477 41 29 41H35C35.5523 41 36 40.5523 36 40V35.5H40.5C41.0523 35.5 41.5 35.0523 41.5 34.5V28.5C41.5 27.9477 41.0523 27.5 40.5 27.5H36V23C36 22.4477 35.5523 22 35 22H29Z"
                    fill="#82E0BB"
                  />
                </svg>