<svg
  width="64"
  height="64"
  viewBox="0 0 64 64"
  fill="none"
  xmlns="http://www.w3.org/2000/svg"
>
  <circle cx="32" cy="21" r="11" fill="#82E0BB" />
  <path
    d="M54.3289 10.2738H51.1763C51.2237 9.30197 51.2711 8.33019 51.2711 7.33453C51.2711 6.36274 50.9156 5.39081 50.2755 4.67972C49.6355 3.96864 48.7822 3.54199 47.8577 3.54199H16.1423C15.2178 3.54199 14.3408 3.96864 13.7007 4.67972C13.0844 5.39081 12.7052 6.36274 12.7289 7.33453C12.7289 8.33019 12.7763 9.30197 12.8237 10.2738H9.67108C6.87406 10.2738 4.57487 12.5494 4.57487 15.3701V18.8546C4.57487 27.4827 11.1882 34.5701 19.6267 35.305C22.0917 39.1683 25.1018 41.847 28.4436 42.961V46.0565C24.1222 47.4173 20.8907 51.1366 20.244 55.7169H16.8557C15.5455 55.7169 14.4853 56.7782 14.4853 58.0873C14.4853 59.3963 15.5455 60.4576 16.8557 60.4576C49.1959 60.4603 36.9065 60.4578 47.1427 60.4576C48.4529 60.4576 49.5131 59.3963 49.5131 58.0873C49.5131 56.7782 48.4529 55.7169 47.1427 55.7169H43.7605C43.1408 51.2705 40.2501 47.5094 35.5548 46.0486V42.9614C35.5545 42.9616 35.555 42.9613 35.5548 42.9614C39.063 41.7999 42.2164 38.9079 44.7289 34.7124C53.191 32.4131 59.4251 24.6857 59.4251 15.5123V15.3701C59.4251 12.5494 57.1259 10.2738 54.3289 10.2738ZM34.9866 15.7495L37.9259 16.1761C38.6371 16.2709 39.1822 16.7687 39.4192 17.4323C39.6326 18.0961 39.4429 18.8309 38.9452 19.3286L36.8118 21.4145L37.3097 24.3302C37.4282 25.0413 37.1437 25.7286 36.5985 26.1553C35.9711 26.5589 35.2706 26.6468 34.6311 26.2738L31.9999 24.8991L29.3689 26.2738C28.7289 26.6056 27.9941 26.5583 27.4251 26.1553C26.8563 25.7286 26.5718 25.0413 26.6903 24.3302L27.1882 21.3908L25.0548 19.3286C24.5571 18.8309 24.3674 18.0961 24.5808 17.4323C24.8178 16.7687 25.3866 16.2709 26.074 16.1761L29.0134 15.7495C29.1313 15.5115 30.4587 12.833 30.3408 13.0709C30.6489 12.4546 31.2888 12.0515 31.9999 12.0515C32.7112 12.0515 33.3511 12.4309 33.6592 13.0709C33.7771 13.3089 35.1045 15.9874 34.9866 15.7495ZM9.31561 18.8546V15.3701C9.31561 15.1804 9.48141 15.0145 9.67108 15.0145H13.2029C13.8192 20.6087 15.0993 25.6339 16.8296 29.853C12.4444 28.1464 9.31561 23.8561 9.31561 18.8546ZM54.6844 15.5123C54.6844 20.7982 51.9348 25.4679 47.8104 28.1939C49.2326 24.3302 50.2518 19.8739 50.7971 15.0145H54.3289C54.5184 15.0145 54.6844 15.1804 54.6844 15.3701V15.5123Z"
    fill="#03B46D"
  />
</svg>