
<svg
  width="64"
  height="64"
  viewBox="0 0 64 64"
  fill="none"
  xmlns="http://www.w3.org/2000/svg"
>
  <path
    d="M31.8643 38.7734C22.6643 38.7734 14.9018 40.2768 14.9018 46.0787C14.9018 51.8831 22.7145 53.3336 31.8643 53.3336C41.0642 53.3336 48.8268 51.8303 48.8268 46.0283C48.8268 40.2239 41.0141 38.7734 31.8643 38.7734Z"
    fill="#03B46D"
  />
  <path
    opacity="0.4"
    d="M31.8642 33.2457C38.0938 33.2457 43.0889 28.2218 43.0889 21.9564C43.0889 15.6885 38.0938 10.667 31.8642 10.667C25.6346 10.667 20.6394 15.6885 20.6394 21.9564C20.6394 28.2218 25.6346 33.2457 31.8642 33.2457Z"
    fill="#03B46D"
  />
  <path
    opacity="0.4"
    d="M56.2349 24.5866C57.8467 18.2466 53.1213 12.5527 47.1042 12.5527C46.45 12.5527 45.8244 12.6248 45.2131 12.7473C45.1319 12.7665 45.0412 12.8073 44.9934 12.8793C44.9385 12.9706 44.9791 13.0931 45.0388 13.1723C46.8463 15.7227 47.885 18.8278 47.885 22.1611C47.885 25.355 46.9323 28.3329 45.2609 30.804C45.089 31.0586 45.2418 31.402 45.545 31.4548C45.9653 31.5292 46.395 31.5677 46.8344 31.5797C51.2159 31.695 55.1485 28.8588 56.2349 24.5866Z"
    fill="#03B46D"
  />
  <path
    d="M60.8245 39.5112C60.0222 37.7918 58.0858 36.6126 55.1417 36.0339C53.752 35.6929 49.9913 35.2126 46.4933 35.2774C46.4408 35.2846 46.4121 35.3206 46.4073 35.3447C46.4002 35.3783 46.4145 35.4359 46.4837 35.4719C48.1002 36.2764 54.349 39.7754 53.5634 47.1552C53.53 47.4746 53.7854 47.7507 54.103 47.7027C55.6407 47.4818 59.5972 46.6268 60.8245 43.9636C61.5026 42.5563 61.5026 40.9209 60.8245 39.5112Z"
    fill="#03B46D"
  />
  <path
    opacity="0.4"
    d="M18.7863 12.7473C18.1774 12.6224 17.5494 12.5527 16.8952 12.5527C10.8781 12.5527 6.15276 18.2466 7.76687 24.5866C8.85091 28.8588 12.7835 31.695 17.165 31.5797C17.6044 31.5677 18.0365 31.5268 18.4544 31.4548C18.7576 31.402 18.9105 31.0586 18.7385 30.804C17.0671 28.3305 16.1144 25.355 16.1144 22.1611C16.1144 18.8254 17.1555 15.7203 18.963 13.1723C19.0203 13.0931 19.0633 12.9706 19.006 12.8793C18.9582 12.8049 18.8699 12.7665 18.7863 12.7473Z"
    fill="#03B46D"
  />
  <path
    d="M8.85756 36.0339C5.91348 36.6126 3.97941 37.7918 3.17713 39.5112C2.49662 40.9209 2.49662 42.5563 3.17713 43.966C4.40443 46.6268 8.36091 47.4841 9.89862 47.7027C10.2162 47.7507 10.4693 47.4769 10.4359 47.1551C9.65029 39.7778 15.899 36.2788 17.5179 35.4743C17.5848 35.4359 17.5991 35.3807 17.5919 35.3446C17.5871 35.3206 17.5609 35.2846 17.5083 35.2798C14.0079 35.2126 10.2496 35.6929 8.85756 36.0339Z"
    fill="#03B46D"
  />
</svg>
